<svg width="512" height="512" viewBox="0 0 512 512" fill="none" xmlns="http://www.w3.org/2000/svg">
<path d="M494.818 104.939L458.928 104.937V67.7855C458.928 63.6698 457.451 59.6908 454.765 56.5725C452.079 53.4542 448.362 51.4039 444.292 50.7947C442.823 50.5741 407.859 45.4954 365.756 53.1565C318.82 61.6967 281.387 82.7575 255.999 114.596C230.61 82.7575 193.177 61.6967 146.242 53.1565C104.137 45.4972 69.1732 50.5741 67.7062 50.7947C63.6361 51.4046 59.9202 53.4551 57.2342 56.5732C54.5482 59.6913 53.0707 63.67 53.0703 67.7855V104.937H17.1804C7.69376 104.937 2.37939e-08 112.631 2.37939e-08 122.119V445.876C-0.000144263 448.618 0.655929 451.32 1.9134 453.757C3.17086 456.193 4.9932 458.293 7.22813 459.882C9.46305 461.47 12.0457 462.5 14.7601 462.886C17.4746 463.273 20.2421 463.004 22.8313 462.102C24.1208 461.655 152.867 417.716 248.869 461.507C251.108 462.529 253.539 463.057 256 463.057C258.461 463.057 260.892 462.529 263.131 461.507C358.864 417.841 487.886 461.659 489.169 462.102C491.758 463.003 494.525 463.271 497.239 462.886C499.954 462.5 502.536 461.47 504.772 459.883C507.007 458.295 508.829 456.195 510.086 453.758C511.344 451.322 512 448.62 512 445.878V122.121C511.998 112.633 504.306 104.939 494.818 104.939ZM34.3625 422.888V139.3H53.0703V368.106C53.0726 370.573 53.6063 373.011 54.6349 375.254C55.6636 377.496 57.1631 379.491 59.0315 381.103C60.9 382.716 63.0942 383.909 65.4647 384.599C67.8353 385.288 70.3266 385.46 72.7693 385.1C73.7174 384.962 148.355 374.715 202.886 412.129C135.714 400.643 68.4854 413.929 34.3625 422.888ZM238.819 396.635C214.801 374.934 183.518 360.261 146.242 353.479C128.303 350.214 111.66 349.262 98.3519 349.262C94.4008 349.262 90.7426 349.347 87.4345 349.479V83.5626H87.4327C120.454 82.0732 200.783 85.6037 238.819 150.083V396.635ZM273.18 150.084C311.079 85.8812 391.534 82.1904 424.565 83.6057V349.479C410.114 348.897 389.019 349.245 365.756 353.479C328.48 360.261 297.197 374.933 273.18 396.635V150.084ZM309.056 412.14C363.593 374.703 438.271 384.961 439.201 385.099C441.646 385.465 444.14 385.3 446.515 384.614C448.89 383.929 451.088 382.739 452.961 381.125C454.834 379.512 456.336 377.514 457.366 375.267C458.396 373.02 458.929 370.578 458.928 368.106V139.301H477.636V422.888C443.503 413.926 376.246 400.634 309.056 412.14Z" fill="#006697"/>
</svg>
