<svg width="512" height="512" viewBox="0 0 512 512" fill="none" xmlns="http://www.w3.org/2000/svg">
<path d="M31.9999 256C32.485 255.999 32.9696 255.967 33.4506 255.904C111.807 245.272 188.229 223.435 260.373 191.061C333.229 158.282 400.92 115.062 461.312 62.7626L448.32 114.752C447.636 117.495 448.068 120.397 449.522 122.821C450.976 125.245 453.333 126.992 456.075 127.68C456.923 127.89 457.793 127.997 458.667 128C461.044 127.997 463.352 127.2 465.225 125.735C467.098 124.27 468.427 122.221 469.003 119.915L490.336 34.5813C490.728 33.0101 490.757 31.3703 490.421 29.7862C490.085 28.2021 489.392 26.7154 488.396 25.4386C487.4 24.1619 486.126 23.1287 484.672 22.4174C483.217 21.7061 481.619 21.3354 480 21.3333H394.667C391.838 21.3333 389.125 22.4571 387.124 24.4575C385.124 26.4579 384 29.171 384 32C384 34.829 385.124 37.5421 387.124 39.5425C389.125 41.5428 391.838 42.6666 394.667 42.6666H451.936C391.956 95.3767 324.442 138.835 251.627 171.605C181.344 203.141 106.894 224.411 30.5599 234.763C27.8781 235.125 25.4342 236.493 23.7233 238.59C22.0124 240.686 21.1624 243.355 21.3455 246.055C21.5286 248.755 22.731 251.284 24.7093 253.131C26.6876 254.977 29.2938 256.003 31.9999 256Z" fill="#006697"/>
<path d="M480 469.333H469.333V181.333C469.333 178.504 468.209 175.791 466.209 173.791C464.209 171.79 461.496 170.667 458.667 170.667H352C349.171 170.667 346.458 171.79 344.457 173.791C342.457 175.791 341.333 178.504 341.333 181.333V469.333H320V245.333C320 242.504 318.876 239.791 316.876 237.791C314.875 235.79 312.162 234.667 309.333 234.667H202.667C199.838 234.667 197.124 235.79 195.124 237.791C193.124 239.791 192 242.504 192 245.333V469.333H170.667V309.333C170.667 306.504 169.543 303.791 167.542 301.791C165.542 299.79 162.829 298.667 160 298.667H53.3333C50.5043 298.667 47.7912 299.79 45.7908 301.791C43.7904 303.791 42.6666 306.504 42.6666 309.333V469.333H31.9999C29.1709 469.333 26.4578 470.457 24.4574 472.457C22.4571 474.458 21.3333 477.171 21.3333 480C21.3333 482.829 22.4571 485.542 24.4574 487.542C26.4578 489.543 29.1709 490.667 31.9999 490.667H480C482.829 490.667 485.542 489.543 487.542 487.542C489.543 485.542 490.667 482.829 490.667 480C490.667 477.171 489.543 474.458 487.542 472.457C485.542 470.457 482.829 469.333 480 469.333ZM362.667 192H448V469.333H362.667V192ZM213.333 256H298.667V469.333H213.333V256ZM63.9999 320H149.333V469.333H63.9999V320Z" fill="#006697"/>
</svg>
