<svg xmlns="http://www.w3.org/2000/svg" version="1.1" xmlns:xlink="http://www.w3.org/1999/xlink" width="512" height="512" x="0" y="0" viewBox="0 0 512 512" style="enable-background:new 0 0 512 512" xml:space="preserve" class=""><g><path d="M2 344.9C2 401 47.5 446.5 103.6 446.5S205.2 401 205.2 344.9s-45.5-101.6-101.6-101.6c-16.8 0-32.3 4.4-46.3 11.6 18-79.2 88.9-138.6 173.5-138.6 14 0 25.4-11.4 25.4-25.4s-11.4-25.4-25.4-25.4C104.6 65.5 2 168.1 2 294.3zM255.8 344.9c0 56.1 45.5 101.6 101.6 101.6S459 401 459 344.9s-45.5-101.6-101.6-101.6c-16.8 0-32.3 4.4-46.3 11.6 18-79.2 88.9-138.6 173.5-138.6 14 0 25.4-11.4 25.4-25.4s-11.4-25.4-25.4-25.4c-126.2 0-228.8 102.6-228.8 228.8z" fill="#006697" opacity="1" data-original="#000000" class=""></path></g></svg>