<svg width="43" height="37" viewBox="0 0 43 37" fill="none" xmlns="http://www.w3.org/2000/svg">
<path d="M2.58451 15.4718C2.76046 15.4431 2.93852 15.4299 3.11667 15.4322H33.4523L32.7909 15.1236C32.1443 14.8165 31.5561 14.3986 31.0526 13.8888L22.5457 5.35356C21.4253 4.28048 21.2371 2.55424 22.0996 1.26344C23.1034 -0.112056 25.0285 -0.410712 26.3995 0.596481C26.5103 0.677897 26.6156 0.766645 26.7145 0.862145L42.0977 16.2966C43.2999 17.5014 43.3009 19.4559 42.1001 20.6621C42.0993 20.6629 42.0984 20.6637 42.0977 20.6645L26.7145 36.0989C25.5114 37.3027 23.5634 37.3 22.3635 36.0929C22.2691 35.9978 22.1809 35.8967 22.0996 35.7902C21.2371 34.4994 21.4253 32.7732 22.5457 31.7001L31.0372 23.1494C31.4886 22.6961 32.0076 22.3159 32.5755 22.0227L33.4985 21.606H3.28598C1.71431 21.6646 0.335398 20.563 0.0401379 19.013C-0.231855 17.3302 0.90727 15.7448 2.58451 15.4718Z" fill="#006697"/>
</svg>
