<svg width="43" height="37" viewBox="0 0 43 37" fill="none" xmlns="http://www.w3.org/2000/svg">
<path d="M40.4155 15.4718C40.2395 15.4431 40.0615 15.4299 39.8833 15.4322H9.54767L10.2091 15.1236C10.8557 14.8165 11.4439 14.3986 11.9474 13.8888L20.4543 5.35356C21.5747 4.28048 21.7629 2.55424 20.9004 1.26344C19.8966 -0.112056 17.9715 -0.410712 16.6005 0.596481C16.4897 0.677897 16.3844 0.766645 16.2855 0.862145L0.902342 16.2966C-0.299851 17.5014 -0.300908 19.4559 0.899938 20.6621C0.900708 20.6629 0.901573 20.6637 0.902342 20.6645L16.2855 36.0989C17.4886 37.3027 19.4366 37.3 20.6365 36.0929C20.7309 35.9978 20.8191 35.8967 20.9004 35.7902C21.7629 34.4994 21.5747 32.7732 20.4543 31.7001L11.9628 23.1494C11.5114 22.6961 10.9924 22.3159 10.4245 22.0227L9.50152 21.606H39.714C41.2857 21.6646 42.6646 20.563 42.9599 19.013C43.2319 17.3302 42.0927 15.7448 40.4155 15.4718Z" fill="#006697"/>
</svg>
