<svg width="1405" height="463" viewBox="0 0 1405 463" fill="none" xmlns="http://www.w3.org/2000/svg">
<g clip-path="url(#clip0_205_55)">
<path d="M261.717 6.64405C262.655 6.78873 263.595 6.92556 264.535 7.06071C288.402 10.5211 311.142 17.8617 332.7 28.6534C333.128 28.8655 333.556 29.0776 333.996 29.2961C343.568 34.0631 352.704 39.5995 361.337 45.9105C362.127 46.4842 362.923 47.0473 363.723 47.6068C367.774 50.4461 371.676 53.4659 375.561 56.5271C376.289 57.0996 377.02 57.6682 377.751 58.2358C383.141 62.4558 387.954 67.3222 392.78 72.1619C393.763 73.1475 394.749 74.1307 395.734 75.1137C396.371 75.7507 397.008 76.3879 397.644 77.0252C398.078 77.4577 398.078 77.4577 398.521 77.8989C400.47 79.8587 402.307 81.8954 404.107 83.9933C404.407 84.3387 404.407 84.3387 404.714 84.6912C408.016 88.489 411.102 92.433 414.122 96.4569C414.764 97.3102 415.41 98.1595 416.057 99.0085C438.906 129.262 452.151 166.283 457.527 203.56C457.651 204.418 457.778 205.277 457.906 206.135C460.66 225.568 459.866 246.688 457.215 266.079C457.141 266.623 457.067 267.167 456.991 267.727C456.56 270.768 456.034 273.78 455.43 276.79C455.351 277.194 455.273 277.598 455.192 278.014C451.914 294.684 446.55 310.763 439.81 326.328C439.633 326.741 439.457 327.153 439.275 327.579C430.404 348.273 417.951 367.689 402.736 384.297C401.941 385.166 401.167 386.048 400.397 386.94C394.169 394.066 394.169 394.066 390.769 396.903C389.529 397.995 388.386 399.177 387.231 400.356C385.178 402.444 383.035 404.328 380.739 406.151C379.579 407.091 378.482 408.075 377.385 409.087C347.181 436.498 306.115 453.43 266.203 459.769C265.839 459.826 265.476 459.884 265.101 459.944C232.797 464.977 198.445 462.896 167.127 453.521C166.444 453.316 166.444 453.316 165.747 453.108C141.731 445.834 118.727 435.276 98.3986 420.495C98.0315 420.231 97.6644 419.967 97.2862 419.695C92.9917 416.603 88.8108 413.438 84.8264 409.955C84.0658 409.293 83.2991 408.638 82.5309 407.985C78.4666 404.527 74.441 401.053 70.699 397.243C69.8374 396.397 68.9436 395.615 68.0231 394.834C66.558 393.57 65.3011 392.227 64.0518 390.752C63.1305 389.688 62.1797 388.659 61.2185 387.631C58.6119 384.843 56.1498 381.976 53.7697 378.99C53.3534 378.476 52.9367 377.962 52.5197 377.447C48.2547 372.175 44.0714 366.833 40.3688 361.146C39.7523 360.203 39.1223 359.269 38.4826 358.342C35.0543 353.37 32.1201 348.137 29.2238 342.841C28.997 342.429 28.7702 342.017 28.5365 341.592C24.5611 334.332 21.2144 326.835 18.0666 319.188C17.8797 318.734 17.6928 318.281 17.5002 317.813C12.6146 305.789 9.08267 293.058 6.46306 280.36C6.36792 279.92 6.27278 279.479 6.17475 279.024C5.41291 275.47 4.78501 271.903 4.23161 268.311C4.1554 267.821 4.1554 267.821 4.07765 267.322C-0.31599 238.732 0.820421 208.47 7.80192 180.392C7.92388 179.897 7.92388 179.897 8.0483 179.392C17.0585 142.962 34.6357 108.273 60.2949 80.6862C60.862 80.0688 61.4264 79.4485 61.97 78.8105C64.3737 75.9919 66.977 73.3807 69.5949 70.7631C70.3884 69.9686 71.1784 69.1705 71.9682 68.3723C74.6679 65.6596 77.3934 63.0949 80.4017 60.7229C81.4008 59.9247 82.343 59.0892 83.2806 58.2201C86.0651 55.7185 89.0819 53.5071 92.0701 51.2577C92.9718 50.5756 93.867 49.8861 94.7603 49.1932C110.301 37.212 127.952 27.8486 146.152 20.6202C146.631 20.4294 147.111 20.2385 147.606 20.0419C165.079 13.1701 183.357 8.86395 201.938 6.33897C202.24 6.29746 202.543 6.25595 202.854 6.21318C221.889 3.64386 242.745 3.68599 261.717 6.64405ZM104.647 54.0919C104.297 54.3414 103.948 54.5908 103.588 54.8478C97.0428 59.538 90.726 64.5024 84.8269 69.9892C84.2049 70.5605 83.5798 71.1288 82.9375 71.6771C80.2398 73.9802 77.7377 76.4702 75.2361 78.9813C74.4957 79.7242 73.7529 80.4646 73.0098 81.2048C70.5192 83.6938 68.0948 86.2129 65.8195 88.9024C65.3961 89.386 64.9719 89.8689 64.5469 90.3511C59.1599 96.5266 54.2911 103.058 49.7531 109.878C49.5566 110.172 49.3602 110.466 49.1578 110.769C43.0545 119.942 37.7407 129.493 32.7941 139.333C32.5888 139.737 32.3835 140.141 32.172 140.558C16.8257 170.896 10.6685 205.499 11.3722 239.302C11.3809 239.738 11.3895 240.174 11.3984 240.623C11.8816 261.298 15.6113 281.715 22.0832 301.336C22.2727 301.916 22.2727 301.916 22.466 302.509C27.3365 317.312 33.7646 331.678 41.7199 345.072C41.9327 345.434 42.1455 345.797 42.3647 346.17C46.8534 353.793 52.0068 360.84 57.4864 367.776C58.2652 368.767 59.0341 369.765 59.8033 370.764C61.2148 372.58 62.6865 374.331 64.2017 376.062C64.5786 376.494 64.5786 376.494 64.9632 376.935C66.6921 378.915 68.4348 380.882 70.2022 382.827C70.9018 383.598 71.5962 384.374 72.2872 385.153C74.1932 387.288 76.1015 389.289 78.2929 391.129C79.3687 392.074 80.3564 393.084 81.3559 394.108C83.2676 396.043 85.2826 397.764 87.407 399.46C88.4478 400.305 89.4358 401.178 90.4212 402.086C93.5069 404.857 96.8685 407.297 100.184 409.784C100.473 410.003 100.762 410.221 101.06 410.446C111.381 418.228 122.58 424.495 134.102 430.314C134.519 430.525 134.937 430.736 135.367 430.954C177.366 452.029 227.436 457.955 300.038 441.61C327.658 432.398 353.988 417.427 375.487 397.71C376.403 396.873 377.336 396.061 378.278 395.252C379.821 393.91 381.253 392.481 382.686 391.023C383.539 390.185 384.421 389.412 385.335 388.641C387.06 387.154 388.552 385.519 390.055 383.811C391.071 382.666 392.105 381.545 393.15 380.428C395.735 377.66 398.173 374.811 400.536 371.85C400.952 371.34 401.369 370.831 401.786 370.323C405.144 366.208 408.244 361.948 411.247 357.568C411.439 357.29 411.631 357.012 411.829 356.725C436.898 320.296 449.944 276.433 446.265 194.371C443.306 178.569 438.983 163.065 432.669 148.259C432.522 147.912 432.375 147.565 432.224 147.207C423.847 127.563 412.474 109.019 398.509 92.8563C397.41 91.5771 396.349 90.2726 395.292 88.9582C393.946 87.3024 392.552 85.7712 391.016 84.2914C390.226 83.5015 389.513 82.6716 388.793 81.8176C387.267 80.046 385.574 78.5266 383.821 76.9834C382.715 75.9874 381.665 74.9565 380.621 73.896C378.851 72.1079 377.01 70.4521 375.098 68.8194C374.659 68.4351 374.22 68.0508 373.768 67.6549C359.924 55.5736 344.412 45.101 327.837 37.1405C326.825 36.6513 325.82 36.1505 324.814 35.6494C296.555 21.7121 264.447 14.2477 232.927 14.2885C232.57 14.2886 232.214 14.2887 231.847 14.2889C195.911 14.3445 160.349 22.882 104.647 54.0919Z" fill="white"/>
<path d="M216.029 39.2735C216.421 39.2704 216.813 39.2673 217.217 39.2641C218.474 39.2564 219.731 39.2535 220.989 39.2526C221.418 39.2521 221.848 39.2517 222.291 39.2512C228.693 39.2558 234.907 39.501 241.211 40.703C241.597 40.7723 241.983 40.8415 242.381 40.9129C253.012 42.8246 263.136 45.8934 272.898 50.5214C273.212 50.67 273.526 50.8185 273.85 50.9716C283.975 55.797 283.975 55.797 286.733 58.5546C286.853 59.7544 286.772 60.9161 286.733 62.1249C284.817 61.8805 283.363 61.4323 281.656 60.535C281.188 60.2939 280.719 60.0529 280.237 59.8045C279.458 59.3975 278.679 58.9904 277.9 58.5831C264.135 51.4234 248.774 46.893 233.178 46.5048C232.833 46.4956 232.488 46.4865 232.133 46.4771C216.021 46.1082 200.378 48.9619 185.425 54.9843C184.925 55.1793 184.425 55.3743 183.91 55.5753C177.212 58.2964 170.762 61.925 164.896 66.1415C164.629 66.3304 164.363 66.5193 164.088 66.714C159.709 69.8331 155.706 73.2201 151.856 76.9708C151.084 77.7227 150.305 78.4671 149.525 79.2111C146.121 82.4959 143.176 86.0069 140.35 89.7948C139.884 90.4058 139.884 90.4058 139.408 91.0291C135.199 96.6523 131.73 102.638 128.746 108.985C128.598 109.294 128.45 109.604 128.297 109.922C123.388 120.195 120.481 131.202 118.928 142.457C118.884 142.761 118.841 143.066 118.796 143.379C115.381 171.488 123.647 200.682 141.047 222.928C142.849 225.209 144.744 227.375 146.741 229.489C147.49 230.376 147.49 230.376 147.937 231.715C148.318 231.902 148.318 231.902 148.707 232.093C150.113 232.806 151.052 233.903 152.121 235.034C154.965 237.958 158.062 240.435 161.325 242.872C161.976 243.362 161.976 243.362 162.64 243.862C175.424 253.332 189.624 259.331 205.062 262.955C205.452 263.049 205.842 263.144 206.244 263.241C222.455 267.118 236.106 261.265 249.939 252.912C254.163 250.287 257.973 247.166 261.625 243.796C262.528 242.968 263.452 242.18 264.39 241.394C287.872 220.777 298.528 187.3 304.138 157.631C304.233 157.13 304.233 157.13 304.33 156.619C304.887 153.672 305.444 150.724 305.983 147.773C306.138 146.931 306.138 146.931 306.296 146.071C306.386 145.576 306.476 145.081 306.569 144.572C306.816 143.35 306.816 143.35 307.262 142.011C307.556 142.011 307.851 142.011 308.154 142.011C308.233 142.459 308.311 142.907 308.392 143.369C312.652 172.997 312.652 172.997 328.968 196.925C334.369 200.531 339.992 201.97 346.479 201.116C352.885 199.816 358.142 196.957 363.494 193.334C364.03 192.975 364.03 192.975 364.576 192.608C368.055 190.27 371.517 187.93 374.817 185.342C375.544 184.854 375.544 184.854 376.437 184.854C372.277 198.496 356.971 214.526 346.778 224.332C346.052 225.057 345.406 225.822 344.75 226.61C342.409 229.327 339.703 231.697 337.061 234.114C336.393 234.727 335.728 235.344 335.064 235.961C312.424 256.803 283.752 268.544 253.623 273.303C253.19 273.372 252.757 273.442 252.31 273.513C243.986 274.768 235.731 275.173 227.32 275.144C226.82 275.143 226.32 275.143 225.805 275.142C218.362 275.121 211.077 274.912 203.723 273.666C203.249 273.589 202.774 273.513 202.286 273.434C192.1 271.757 182.298 269.103 172.929 264.74C172.398 264.496 172.398 264.496 171.856 264.247C162.041 259.693 152.884 253.808 144.921 246.468C144.055 245.674 143.172 244.912 142.274 244.155C137.664 240.125 133.345 235.696 129.639 230.822C129.302 230.388 129.302 230.388 128.958 229.945C122.536 221.646 117.336 212.763 113.126 203.152C112.98 202.819 112.834 202.486 112.684 202.143C110.158 196.266 108.476 190.145 106.878 183.962C106.731 183.393 106.583 182.824 106.432 182.238C106.079 180.735 105.796 179.236 105.539 177.714C105.479 177.38 105.42 177.047 105.358 176.703C101.228 152.869 105.334 127.543 115.804 105.861C115.943 105.565 116.083 105.268 116.227 104.962C119.747 97.4781 124.106 90.5109 129.193 83.9931C129.546 83.5392 129.899 83.0853 130.263 82.6176C135.717 75.9155 141.979 69.514 148.992 64.4439C149.739 63.8976 150.469 63.3329 151.198 62.763C169.361 48.7501 192.917 39.3979 216.029 39.2735Z" fill="#F25B01"/>
<path d="M292.088 36.6865C292.53 36.8338 292.972 36.9811 293.427 37.1328C293.864 38.1196 293.864 38.1196 294.244 39.4357C294.459 40.1659 294.459 40.1659 294.678 40.9109C294.901 41.7055 294.901 41.7055 295.128 42.5162C295.285 43.0629 295.442 43.6096 295.603 44.1729C296.076 45.8405 296.539 47.5107 296.997 49.1826C297.123 49.6413 297.25 50.0999 297.38 50.5725C302.297 68.658 304.788 87.3798 304.723 106.112C304.723 106.595 304.722 107.078 304.721 107.576C304.702 115.562 304.356 123.384 303.245 131.3C303.148 132.003 303.148 132.003 303.05 132.721C298.518 164.665 284.851 194.472 264.864 219.665C264.675 219.905 264.485 220.144 264.289 220.391C262.238 222.97 260.097 225.453 257.874 227.885C257.316 228.501 256.762 229.119 256.225 229.753C253.802 232.597 251.164 235.218 248.519 237.853C247.712 238.658 246.907 239.466 246.102 240.274C243.506 242.871 240.9 245.417 238.087 247.781C237.567 248.231 237.047 248.681 236.528 249.132C228.326 256.201 228.326 256.201 224.698 258.492C224.404 258.345 224.109 258.198 223.806 258.046C224.281 257.283 224.757 256.52 225.233 255.757C225.644 255.1 226.054 254.442 226.463 253.784C227.553 252.036 228.664 250.307 229.803 248.59C242.102 229.213 247.425 206.596 242.466 184.018C236.699 159.338 219.887 136.185 200.803 119.773C199.313 118.456 197.865 117.096 196.415 115.735C194.168 113.63 191.91 111.54 189.609 109.493C188.866 108.824 188.132 108.146 187.405 107.46C184.991 105.197 182.511 103.206 179.803 101.317C177.098 99.4281 174.523 97.3925 171.944 95.3367C171.11 94.6774 170.268 94.0282 169.425 93.3809C169.143 93.1634 168.861 92.9459 168.57 92.7218C168.034 92.3082 167.496 91.8964 166.956 91.4869C165.443 90.3147 164.243 89.1054 163.11 87.5635C166.849 88.4754 170.345 89.7686 173.905 91.2175C187.18 96.5235 201.17 100.944 215.326 103.184C215.731 103.249 216.137 103.314 216.554 103.382C222.266 104.27 227.934 104.649 233.708 104.662C234.272 104.664 234.836 104.667 235.417 104.669C249.612 104.561 263.085 100.396 273.513 90.5585C277.576 86.3561 280.474 81.5636 283.162 76.4062C283.372 76.0156 283.582 75.625 283.798 75.2225C289.66 63.4426 290.832 49.5672 292.088 36.6865Z" fill="white"/>
<path d="M187.21 126.391C191.605 127.942 194.961 131.761 198.172 135.01C198.542 135.382 198.913 135.755 199.294 136.139C201.841 138.726 204.187 141.363 206.4 144.242C206.673 144.558 206.945 144.874 207.225 145.199C219.196 159.236 225.989 178.007 228.715 196.012C228.768 196.35 228.821 196.689 228.875 197.038C231.794 216.479 229.689 241.661 218.896 258.492C218.749 258.492 218.602 258.492 218.45 258.492C218.44 257.636 218.44 257.636 218.43 256.762C218.404 254.609 218.37 252.457 218.333 250.304C218.318 249.379 218.306 248.454 218.296 247.528C218.217 240.614 217.879 233.953 215.466 227.391C215.353 227.08 215.24 226.768 215.124 226.447C213.942 223.333 212.348 220.599 210.417 217.88C210.185 217.552 209.953 217.224 209.714 216.886C202.792 208.132 191.045 205.33 180.557 203.864C171.643 202.92 162.744 203.814 153.879 204.785C151.011 205.081 148.138 205.25 145.259 205.384C145.705 204.045 145.705 204.045 147.226 203.192C147.906 202.868 148.589 202.548 149.274 202.232C149.64 202.057 150.007 201.883 150.385 201.703C151.951 200.957 153.522 200.221 155.093 199.485C170.437 192.267 187.267 181.918 193.458 165.218C194.518 161.988 195.467 158.799 195.689 155.399C195.724 154.885 195.724 154.885 195.759 154.36C196.073 145.628 192.956 137.446 188.958 129.851C188.359 128.706 187.784 127.548 187.21 126.391Z" fill="#F25B01"/>
<path d="M121.689 242.398C122.531 242.412 122.531 242.412 123.391 242.426C122.87 245.811 120.001 248.145 117.673 250.403C115.578 252.445 113.562 254.509 111.653 256.727C110.407 258.16 109.102 259.538 107.798 260.919C107.513 261.222 107.228 261.525 106.934 261.837C106.332 262.477 105.729 263.117 105.125 263.757C104.193 264.747 103.264 265.74 102.335 266.733C99.4365 269.827 96.5371 272.907 93.4962 275.863C92.5253 276.864 91.6662 277.92 90.8115 279.021C93.9417 278.734 96.8506 277.954 99.8768 277.125C136.794 267.333 179.579 266.466 213.532 286.085C217.526 288.46 221.357 291.061 225.145 293.749C225.586 294.044 226.028 294.338 226.483 294.642C226.483 295.083 226.483 295.525 226.483 295.98C223.001 295.402 219.77 294.38 216.442 293.219C176.288 279.599 133.622 279.315 68.8632 294.931C68.5262 295.039 68.1891 295.147 67.8419 295.258C66.9885 295.536 66.1379 295.821 65.2876 296.108C64.0342 296.427 64.0342 296.427 62.6953 295.98C66.0604 292.17 69.5001 288.525 73.3627 285.215C74.862 283.872 76.2544 282.425 77.6687 280.993C78.9003 279.777 80.1862 278.649 81.5005 277.524C82.5916 276.561 83.6001 275.528 84.6188 274.489C85.43 273.692 86.2658 272.945 87.1279 272.203C88.926 270.64 90.6693 269.026 92.4014 267.39C93.029 266.8 93.6566 266.209 94.2842 265.619C94.5983 265.323 94.9124 265.027 95.2361 264.723C96.6679 263.377 98.1048 262.036 99.5421 260.696C99.8162 260.44 100.09 260.184 100.373 259.921C100.926 259.405 101.479 258.889 102.032 258.373C102.866 257.596 103.699 256.817 104.533 256.039C104.948 255.652 104.948 255.652 105.372 255.257C105.926 254.739 106.481 254.221 107.036 253.703C108.485 252.35 109.935 250.999 111.386 249.648C111.687 249.368 111.987 249.089 112.297 248.8C112.869 248.268 113.441 247.735 114.014 247.203C115.196 246.102 116.351 244.999 117.474 243.836C118.839 242.53 119.872 242.368 121.689 242.398Z" fill="white"/>
<path d="M336.271 242.426C338.035 241.964 339.41 241.966 341.18 242.426C343.699 244.084 345.698 246.505 347.735 248.702C348.304 249.3 348.875 249.897 349.447 250.493C350.276 251.356 351.104 252.22 351.927 253.089C353.512 254.758 355.128 256.335 356.893 257.816C358.445 259.129 359.9 260.551 361.374 261.951C363.992 264.426 366.626 266.878 369.287 269.306C371.143 271.003 372.977 272.724 374.814 274.442C376.613 276.124 378.419 277.799 380.23 279.468C380.949 280.131 381.667 280.795 382.386 281.458C382.894 281.927 383.402 282.395 383.911 282.863C388.534 287.116 392.997 291.513 397.412 295.981C395.918 296.486 395.084 296.367 393.608 295.846C393.198 295.707 392.789 295.567 392.366 295.423C391.688 295.188 391.688 295.188 390.997 294.948C371.041 288.331 350.105 284.076 329.13 282.592C328.593 282.553 328.593 282.553 328.045 282.514C295.6 280.279 263.82 285.975 233.178 296.427C233.178 295.088 233.178 295.088 233.903 294.267C236.31 292.157 238.741 290.459 241.546 288.924C241.95 288.698 242.354 288.473 242.771 288.241C244.033 287.541 245.299 286.851 246.566 286.162C247.162 285.834 247.162 285.834 247.769 285.5C283.885 265.654 326.538 267.939 365.208 278.532C365.681 278.661 366.154 278.79 366.641 278.922C367.058 279.038 367.475 279.155 367.905 279.274C368.217 279.338 368.529 279.402 368.85 279.468C368.997 279.321 369.144 279.173 369.296 279.022C368.881 278.612 368.466 278.202 368.039 277.78C362.931 272.716 362.931 272.716 360.684 270.061C359.405 268.617 358.014 267.285 356.632 265.94C355.709 264.994 354.844 264.039 353.983 263.039C352.331 261.133 350.566 259.365 348.767 257.6C346.426 255.304 344.195 252.959 342.072 250.459C341.755 250.086 341.755 250.086 341.432 249.705C340.861 249.029 340.295 248.349 339.729 247.67C339.359 247.226 338.988 246.781 338.607 246.324C336.271 243.465 336.271 243.465 336.271 242.426Z" fill="white"/>
<path d="M332.7 311.601C338.738 311.601 344.777 311.601 350.998 311.601C353.42 322.154 355.8 332.715 358.139 343.287C358.143 342.897 358.148 342.506 358.153 342.104C358.196 338.433 358.242 334.762 358.29 331.091C358.315 329.203 358.339 327.315 358.361 325.428C358.382 323.608 358.405 321.788 358.43 319.967C358.439 319.272 358.448 318.576 358.455 317.88C358.466 316.908 358.479 315.937 358.493 314.965C358.5 314.411 358.507 313.857 358.514 313.287C358.585 312.047 358.585 312.047 359.031 311.601C362.419 311.601 365.806 311.601 369.296 311.601C369.296 328.537 369.296 345.474 369.296 362.924C363.699 363.071 358.103 363.218 352.337 363.37C351.204 358.461 350.073 353.551 348.947 348.64C348.736 347.723 348.526 346.806 348.315 345.889C346.646 338.632 345.027 331.366 343.411 324.097C343.264 337.057 343.117 350.017 342.965 363.37C339.578 363.37 336.19 363.37 332.7 363.37C332.7 346.286 332.7 329.202 332.7 311.601Z" fill="#F25B01"/>
<path d="M309.27 313.72C312.709 316.622 313.686 320.118 314.068 324.479C314.145 325.876 314.196 327.272 314.235 328.671C314.26 329.445 314.26 329.445 314.285 330.234C314.4 334.259 314.461 338.284 314.486 342.311C314.492 342.85 314.498 343.389 314.504 343.944C314.51 349.805 314.417 355.652 310.274 360.134C306.356 363.802 301.697 364.457 296.5 364.374C292.09 364.09 287.286 363.177 284.139 359.833C281.344 356.265 280.916 352.848 280.79 348.374C280.78 348.057 280.771 347.74 280.761 347.413C280.732 346.391 280.706 345.369 280.68 344.347C280.666 343.823 280.666 343.823 280.652 343.289C280.59 340.908 280.535 338.527 280.485 336.146C280.474 335.639 280.462 335.131 280.451 334.608C280.164 319.668 280.164 319.668 284.292 314.813C290.444 308.966 302.49 309.091 309.27 313.72ZM294.32 321.419C294.11 322.881 294.11 322.881 294.132 324.536C294.128 324.846 294.125 325.156 294.121 325.475C294.11 326.498 294.11 327.521 294.11 328.544C294.107 329.256 294.104 329.969 294.1 330.681C294.094 332.174 294.093 333.667 294.096 335.16C294.099 337.071 294.085 338.981 294.067 340.892C294.055 342.363 294.054 343.835 294.056 345.306C294.055 346.011 294.051 346.715 294.043 347.419C294.033 348.406 294.037 349.391 294.045 350.377C294.044 350.938 294.043 351.498 294.042 352.075C294.395 353.953 295.06 354.625 296.551 355.783C297.958 355.933 297.958 355.933 299.229 355.337C303.263 349.964 301.034 337.935 300.897 331.384C300.882 330.607 300.869 329.83 300.859 329.053C300.844 327.91 300.821 326.767 300.796 325.624C300.793 325.278 300.79 324.933 300.787 324.577C300.733 322.571 300.485 321.225 299.229 319.634C298.37 319.301 298.37 319.301 297.444 319.383C296.988 319.382 296.988 319.382 296.523 319.381C295.265 319.749 294.978 320.294 294.32 321.419Z" fill="#F25B01"/>
<path d="M253.662 58.8738C258.074 63.6713 259.846 69.2742 259.653 75.7299C259.454 77.8883 258.99 79.7609 258.17 81.7618C258.056 82.0615 257.942 82.3613 257.825 82.6701C255.939 87.0221 251.906 91.1093 247.562 93.0149C241.084 95.4519 235.012 95.2644 228.687 92.417C223.455 89.6305 220.071 85.3292 218.276 79.7406C217.808 77.8422 217.786 75.9824 217.809 74.0354C217.813 73.6236 217.817 73.2117 217.821 72.7874C217.96 67.2941 219.611 63.0813 223.359 59.0011C224.907 57.6429 226.514 56.5061 228.269 55.4307C228.573 55.238 228.878 55.0453 229.192 54.8467C237.112 50.6074 247.373 52.9291 253.662 58.8738Z" fill="white"/>
<path d="M155.077 311.601C177.837 311.601 177.837 311.601 182.301 314.725C187.186 319.965 185.946 329.483 185.929 336.124C185.927 337.261 185.929 338.397 185.932 339.534C185.94 354.987 185.94 354.987 182.301 359.354C175.361 365.136 162.373 362.924 155.077 362.924C155.077 345.987 155.077 329.05 155.077 311.601ZM167.573 319.634C167.573 331.269 167.573 342.903 167.573 354.891C170.566 355.217 170.566 355.217 171.98 353.859C173.378 352.091 173.433 350.82 173.447 348.63C173.451 348.076 173.455 347.522 173.46 346.951C173.462 346.345 173.464 345.739 173.466 345.133C173.468 344.511 173.471 343.889 173.473 343.267C173.478 341.963 173.481 340.658 173.482 339.354C173.485 337.687 173.495 336.02 173.508 334.352C173.516 333.067 173.519 331.782 173.519 330.496C173.521 329.882 173.524 329.268 173.53 328.653C173.538 327.792 173.536 326.93 173.534 326.068C173.536 325.578 173.537 325.089 173.539 324.585C173.347 322.97 172.882 321.91 172.036 320.526C170.532 319.345 170.532 319.345 167.573 319.634Z" fill="white"/>
<path d="M122.052 311.601C126.176 311.601 130.299 311.601 134.548 311.601C134.557 312.851 134.566 314.101 134.575 315.389C134.605 319.515 134.639 323.64 134.676 327.766C134.699 330.268 134.719 332.77 134.736 335.272C134.753 337.685 134.773 340.098 134.797 342.512C134.805 343.434 134.812 344.355 134.817 345.277C134.825 346.566 134.838 347.855 134.852 349.143C134.853 349.527 134.854 349.91 134.855 350.305C134.88 352.057 134.894 352.955 135.887 354.444C136.769 354.606 136.769 354.606 137.728 354.528C138.298 354.5 138.869 354.473 139.457 354.444C139.977 352.37 139.98 350.356 139.995 348.231C139.999 347.835 140.004 347.439 140.008 347.03C140.022 345.724 140.034 344.417 140.045 343.111C140.054 342.204 140.063 341.296 140.073 340.389C140.097 338.004 140.119 335.619 140.141 333.233C140.163 330.798 140.188 328.363 140.213 325.928C140.261 321.152 140.306 316.376 140.35 311.601C144.473 311.601 148.597 311.601 152.846 311.601C152.866 316.388 152.882 321.176 152.892 325.964C152.897 328.187 152.903 330.411 152.913 332.634C152.923 334.784 152.928 336.934 152.93 339.085C152.932 339.901 152.935 340.717 152.94 341.533C153.016 354.892 153.016 354.892 149.638 359.911C146.187 363.286 141.69 363.975 137.03 363.956C136.676 363.963 136.321 363.97 135.956 363.978C132.241 363.981 129.01 363.018 126.068 360.692C121.04 355.52 121.924 346.613 121.965 339.929C121.966 339.108 121.968 338.286 121.968 337.465C121.972 335.324 121.981 333.183 121.991 331.042C122 328.849 122.004 326.656 122.008 324.463C122.018 320.175 122.033 315.888 122.052 311.601Z" fill="white"/>
<path d="M84.7866 312.884C87.4984 315.189 88.5781 317.491 89.0263 320.973C89.0787 322.591 89.0684 324.207 89.0542 325.826C89.045 327.317 89.0358 328.808 89.0263 330.345C84.9026 330.345 80.7789 330.345 76.5303 330.345C76.3629 325.965 76.3629 325.965 76.3169 324.59C76.301 324.231 76.2851 323.872 76.2688 323.502C76.2547 323.135 76.2407 322.768 76.2263 322.39C76.1359 321.29 76.1359 321.29 75.1914 320.08C74.315 319.822 74.315 319.822 73.3504 319.773C72.7798 319.727 72.2091 319.681 71.6211 319.634C71.1484 322.187 70.8003 324.222 72.3568 326.488C74.9549 329.642 78.1595 332.102 81.4011 334.563C85.2307 337.606 87.7566 341.629 88.8869 346.355C89.3252 350.739 88.962 354.62 86.9344 358.6C84.2144 361.761 81.1169 363.537 76.9347 363.897C71.5113 364.216 65.9732 364.097 61.5238 360.581C58.7812 357.884 58.2326 354.334 58.1731 350.605C58.172 349.858 58.1732 349.111 58.1766 348.364C58.1749 347.986 58.1732 347.609 58.1714 347.22C58.172 346.855 58.1725 346.49 58.1731 346.115C58.1736 345.786 58.1741 345.457 58.1747 345.118C58.2324 344.18 58.2324 344.18 58.6787 342.394C64.6433 342.615 64.6433 342.615 70.7285 342.841C70.8959 347.638 70.8959 347.638 70.9418 349.142C70.9577 349.537 70.9736 349.931 70.99 350.337C71.011 350.94 71.011 350.94 71.0325 351.555C71.1824 352.718 71.4278 353.464 72.0674 354.444C73.5376 354.934 74.1489 354.94 75.6377 354.444C76.3685 352.983 76.317 351.56 76.084 349.981C75.1012 347.294 73.8008 345.163 71.6211 343.287C71.3697 343.061 71.1183 342.835 70.8592 342.602C69.5436 341.426 68.2097 340.288 66.8235 339.195C62.7622 335.989 59.7668 332.875 58.6787 327.667C58.2458 323.657 57.9244 318.989 60.4638 315.617C65.8499 309.027 77.7528 309.115 84.7866 312.884Z" fill="white"/>
<path d="M249.771 311.526C250.389 311.523 250.389 311.523 251.019 311.521C251.895 311.519 252.77 311.518 253.646 311.518C254.969 311.517 256.292 311.509 257.616 311.5C270.942 311.459 270.942 311.459 275.424 315.371C278.986 319.328 278.361 325.911 278.226 330.9C278.018 334.516 277.236 337.51 274.683 340.163C271.348 342.832 267.186 343.034 263.107 343.343C261.478 343.472 259.849 343.601 258.17 343.733C258.17 350.066 258.17 356.399 258.17 362.924C253.714 363.221 249.247 363.37 244.781 363.37C244.781 346.434 244.781 329.497 244.781 312.047C246.316 311.279 248.081 311.528 249.771 311.526ZM258.17 319.634C258.17 324.936 258.17 330.238 258.17 335.7C261.483 336.005 261.483 336.005 263.051 334.919C264.938 332.861 264.515 330.121 264.53 327.472C264.539 327.052 264.548 326.631 264.557 326.198C264.584 323.135 264.584 323.135 263.079 320.526C261.513 319.304 261.513 319.304 258.17 319.634Z" fill="#F25B01"/>
<path d="M355.851 155.929C359.385 159.904 360.86 164.416 360.816 169.681C360.287 175.106 357.988 179.315 353.796 182.763C349.824 185.716 345.15 186.603 340.231 185.97C335.087 184.886 331.118 182.328 328.002 178.136C325.432 174.068 325.1 168.967 326.006 164.325C327.137 159.479 329.898 156.033 334.095 153.391C341.166 149.529 349.835 150.417 355.851 155.929Z" fill="#F25B01"/>
<path d="M187.656 311.601C191.633 311.601 195.609 311.601 199.706 311.601C200.085 313.373 200.085 313.373 200.471 315.181C200.716 316.323 200.962 317.465 201.207 318.607C201.377 319.401 201.548 320.196 201.717 320.991C201.961 322.132 202.206 323.273 202.452 324.414C202.528 324.771 202.603 325.127 202.681 325.495C203.053 327.3 203.053 327.3 203.723 329.006C203.826 328.526 203.93 328.047 204.036 327.552C204.421 325.773 204.809 323.994 205.199 322.215C205.367 321.445 205.534 320.675 205.7 319.905C205.939 318.798 206.182 317.691 206.425 316.585C206.498 316.24 206.572 315.896 206.647 315.541C206.99 314 207.3 312.929 208.186 311.601C209.352 311.449 209.352 311.449 210.811 311.47C211.332 311.474 211.852 311.479 212.389 311.483C212.935 311.494 213.481 311.505 214.043 311.517C214.867 311.526 214.867 311.526 215.708 311.535C217.069 311.551 218.429 311.573 219.789 311.601C219.18 315.17 218.175 318.558 217.068 322.001C216.799 322.848 216.53 323.694 216.261 324.541C215.888 325.714 215.513 326.886 215.137 328.058C214.477 330.121 213.821 332.185 213.165 334.249C212.816 335.345 212.466 336.44 212.116 337.536C211.958 338.031 211.8 338.525 211.637 339.035C211.498 339.47 211.359 339.904 211.216 340.352C210.697 342.045 210.361 343.517 210.325 345.292C210.316 345.685 210.308 346.078 210.298 346.483C210.287 347.114 210.287 347.114 210.276 347.757C210.267 348.19 210.257 348.624 210.248 349.07C210.219 350.452 210.192 351.835 210.166 353.217C210.147 354.155 210.127 355.093 210.108 356.031C210.059 358.329 210.015 360.626 209.971 362.924C205.847 362.924 201.723 362.924 197.475 362.924C197.453 361.981 197.431 361.038 197.408 360.067C197.109 347.905 195.304 337.549 191.615 325.95C191.494 325.568 191.373 325.186 191.248 324.792C190.637 322.87 190.023 320.949 189.402 319.03C189.174 318.317 188.946 317.605 188.718 316.893C188.611 316.566 188.503 316.238 188.393 315.9C187.907 314.375 187.656 313.22 187.656 311.601Z" fill="white"/>
<path d="M391.666 311.573C392.748 311.575 393.829 311.577 394.91 311.579C397.53 311.584 400.149 311.591 402.768 311.601C402.768 314.399 402.768 317.197 402.768 320.08C399.822 320.08 396.877 320.08 393.842 320.08C393.842 334.366 393.842 348.652 393.842 363.37C389.424 363.37 385.005 363.37 380.453 363.37C380.453 349.085 380.453 334.799 380.453 320.08C377.508 320.08 374.562 320.08 371.527 320.08C371.527 317.429 371.527 314.778 371.527 312.047C378.248 311.591 384.932 311.548 391.666 311.573Z" fill="#F25B01"/>
<path d="M137.253 290.095C137.925 290.095 137.925 290.095 138.609 290.096C160.913 290.132 182.694 293.07 204.504 297.57C204.905 297.652 205.307 297.734 205.72 297.819C209.719 298.64 213.684 299.52 217.592 300.707C217.887 300.794 218.182 300.882 218.485 300.972C219.974 301.445 221.038 301.879 222.021 303.121C217.291 302.913 212.66 302.488 207.979 301.789C172.063 296.485 134.888 295.942 69.4412 303.023C67.0039 303.433 64.7207 303.649 62.249 303.567C62.249 303.273 62.249 302.978 62.249 302.675C77.0142 295.507 95.5882 293.316 111.731 291.434C112.053 291.396 112.375 291.358 112.706 291.319C120.885 290.365 129.022 290.086 137.253 290.095Z" fill="#B2B3B7"/>
<path d="M315.158 290.151C341.533 289.744 374.619 290.656 398.305 303.121C398.305 303.416 398.305 303.71 398.305 304.014C393.503 303.376 388.707 302.713 383.917 301.994C342.082 295.718 299.411 295.885 240.959 303.205C238.787 303.521 236.712 303.615 234.517 303.567C235.727 302.357 237.077 302.14 238.688 301.721C239.191 301.587 239.191 301.587 239.703 301.451C240.809 301.157 241.916 300.87 243.024 300.583C243.405 300.484 243.787 300.384 244.18 300.282C267.368 294.261 291.174 290.554 315.158 290.151Z" fill="#B2B3B7"/>
<path d="M91.2578 311.601C94.7183 311.59 98.1788 311.582 101.639 311.577C103.246 311.575 104.853 311.572 106.46 311.567C108.011 311.562 109.562 311.559 111.113 311.558C111.992 311.557 112.871 311.553 113.75 311.55C114.554 311.55 114.554 311.55 115.374 311.55C115.846 311.549 116.318 311.548 116.804 311.547C118.035 311.601 118.035 311.601 119.82 312.047C119.82 314.551 119.82 317.054 119.82 319.634C117.169 319.781 114.518 319.928 111.787 320.08C111.787 334.218 111.787 348.357 111.787 362.924C107.663 362.924 103.54 362.924 99.291 362.924C99.291 348.638 99.291 334.352 99.291 319.634C97.5237 319.855 97.5237 319.855 95.7207 320.08C94.2288 320.129 92.7513 320.101 91.2578 320.08C91.2578 317.282 91.2578 314.484 91.2578 311.601Z" fill="white"/>
<path d="M178.811 149.741C182.048 151.976 184.237 154.794 185.212 158.63C186 163.198 185.464 166.955 183.193 171.02C180.777 174.386 177.06 177.021 172.929 177.714C168.203 178.13 164.624 177.654 160.572 175.204C156.633 171.158 154.639 166.842 154.631 161.201C154.889 158.027 155.886 155.717 157.755 153.168C158.022 152.772 158.289 152.376 158.564 151.969C163.9 146.327 172.357 145.831 178.811 149.741Z" fill="#F25B01"/>
<path d="M317.08 311.601C321.351 311.601 325.622 311.601 330.022 311.601C330.022 328.537 330.022 345.474 330.022 362.924C325.712 363.163 321.397 363.37 317.08 363.37C317.08 346.286 317.08 329.202 317.08 311.601Z" fill="#F25B01"/>
</g>
<path d="M515.296 216.35C502.763 216.35 493.284 212.825 486.861 205.775C480.438 198.568 477.226 188.307 477.226 174.99V165.59H501.666V176.87C501.666 187.523 506.131 192.85 515.061 192.85C519.448 192.85 522.738 191.597 524.931 189.09C527.281 186.427 528.456 182.197 528.456 176.4C528.456 169.507 526.889 163.475 523.756 158.305C520.623 152.978 514.826 146.633 506.366 139.27C495.713 129.87 488.271 121.41 484.041 113.89C479.811 106.213 477.696 97.5967 477.696 88.04C477.696 75.0367 480.986 65.01 487.566 57.96C494.146 50.7533 503.703 47.15 516.236 47.15C528.613 47.15 537.934 50.7533 544.201 57.96C550.624 65.01 553.836 75.1933 553.836 88.51V95.325H529.396V86.865C529.396 81.225 528.299 77.1517 526.106 74.645C523.913 71.9817 520.701 70.65 516.471 70.65C507.854 70.65 503.546 75.8983 503.546 86.395C503.546 92.3483 505.113 97.91 508.246 103.08C511.536 108.25 517.411 114.517 525.871 121.88C536.681 131.28 544.123 139.818 548.196 147.495C552.269 155.172 554.306 164.18 554.306 174.52C554.306 187.993 550.938 198.333 544.201 205.54C537.621 212.747 527.986 216.35 515.296 216.35ZM589.338 73H562.313V49.5H642.213V73H615.188V214H589.338V73ZM692.328 216.35C679.795 216.35 670.238 212.825 663.658 205.775C657.078 198.568 653.788 188.307 653.788 174.99V49.5H679.638V176.87C679.638 182.51 680.735 186.583 682.928 189.09C685.278 191.597 688.568 192.85 692.798 192.85C697.028 192.85 700.24 191.597 702.433 189.09C704.783 186.583 705.958 182.51 705.958 176.87V49.5H730.868V174.99C730.868 188.307 727.578 198.568 720.998 205.775C714.418 212.825 704.862 216.35 692.328 216.35ZM749.279 49.5H788.759C801.606 49.5 811.241 52.9467 817.664 59.84C824.087 66.7333 827.299 76.8383 827.299 90.155V173.345C827.299 186.662 824.087 196.767 817.664 203.66C811.241 210.553 801.606 214 788.759 214H749.279V49.5ZM788.289 190.5C792.519 190.5 795.731 189.247 797.924 186.74C800.274 184.233 801.449 180.16 801.449 174.52V88.98C801.449 83.34 800.274 79.2667 797.924 76.76C795.731 74.2533 792.519 73 788.289 73H775.129V190.5H788.289ZM864.352 143.97L833.097 49.5H860.592L878.217 109.895H878.687L896.312 49.5H921.457L890.202 143.97V214H864.352V143.97ZM970.739 49.5H1008.81C1021.66 49.5 1031.29 52.9467 1037.71 59.84C1044.14 66.7333 1047.35 76.8383 1047.35 90.155V106.37C1047.35 119.687 1044.14 129.792 1037.71 136.685C1031.29 143.578 1021.66 147.025 1008.81 147.025H996.589V214H970.739V49.5ZM1008.81 123.525C1013.04 123.525 1016.17 122.35 1018.21 120C1020.4 117.65 1021.5 113.655 1021.5 108.015V88.51C1021.5 82.87 1020.4 78.875 1018.21 76.525C1016.17 74.175 1013.04 73 1008.81 73H996.589V123.525H1008.81ZM1098.75 216.35C1086.06 216.35 1076.35 212.747 1069.61 205.54C1062.88 198.333 1059.51 188.15 1059.51 174.99V88.51C1059.51 75.35 1062.88 65.1667 1069.61 57.96C1076.35 50.7533 1086.06 47.15 1098.75 47.15C1111.44 47.15 1121.16 50.7533 1127.89 57.96C1134.63 65.1667 1138 75.35 1138 88.51V174.99C1138 188.15 1134.63 198.333 1127.89 205.54C1121.16 212.747 1111.44 216.35 1098.75 216.35ZM1098.75 192.85C1107.68 192.85 1112.15 187.445 1112.15 176.635V86.865C1112.15 76.055 1107.68 70.65 1098.75 70.65C1089.82 70.65 1085.36 76.055 1085.36 86.865V176.635C1085.36 187.445 1089.82 192.85 1098.75 192.85ZM1155.48 49.5H1181.33V214H1155.48V49.5ZM1200.69 49.5H1233.12L1258.27 147.965H1258.74V49.5H1281.77V214H1255.21L1224.19 93.915H1223.72V214H1200.69V49.5ZM1321.19 73H1294.16V49.5H1374.06V73H1347.04V214H1321.19V73Z" fill="black"/>
<path d="M617.759 271.3H675.059V290.4H638.769V325.735H667.61V344.835H638.769V385.9H675.059V405H617.759V271.3ZM687.146 271.3H719.234C729.675 271.3 737.506 274.101 742.727 279.704C747.948 285.307 750.558 293.52 750.558 304.343V371.957C750.558 382.78 747.948 390.993 742.727 396.596C737.506 402.199 729.675 405 719.234 405H687.146V271.3ZM718.852 385.9C722.29 385.9 724.9 384.881 726.683 382.844C728.593 380.807 729.548 377.496 729.548 372.912V303.388C729.548 298.804 728.593 295.493 726.683 293.456C724.9 291.419 722.29 290.4 718.852 290.4H708.156V385.9H718.852ZM795.3 406.91C785.113 406.91 777.346 404.045 771.998 398.315C766.65 392.458 763.976 384.117 763.976 373.294V271.3H784.986V374.822C784.986 379.406 785.877 382.717 787.66 384.754C789.57 386.791 792.244 387.81 795.682 387.81C799.12 387.81 801.73 386.791 803.513 384.754C805.423 382.717 806.378 379.406 806.378 374.822V271.3H826.624V373.294C826.624 384.117 823.95 392.458 818.602 398.315C813.254 404.045 805.486 406.91 795.3 406.91ZM871.192 406.91C861.133 406.91 853.429 404.045 848.081 398.315C842.861 392.585 840.25 384.499 840.25 374.058V302.242C840.25 291.801 842.861 283.715 848.081 277.985C853.429 272.255 861.133 269.39 871.192 269.39C881.252 269.39 888.892 272.255 894.112 277.985C899.46 283.715 902.134 291.801 902.134 302.242V316.376H882.27V300.905C882.27 292.628 878.769 288.49 871.765 288.49C864.762 288.49 861.26 292.628 861.26 300.905V375.586C861.26 383.735 864.762 387.81 871.765 387.81C878.769 387.81 882.27 383.735 882.27 375.586V355.149H902.134V374.058C902.134 384.499 899.46 392.585 894.112 398.315C888.892 404.045 881.252 406.91 871.192 406.91ZM930.94 271.3H959.399L981.173 405H960.163L956.343 378.451V378.833H932.468L928.648 405H909.166L930.94 271.3ZM953.86 360.688L944.501 294.602H944.119L934.951 360.688H953.86ZM999.025 290.4H977.06V271.3H1042V290.4H1020.04V405H999.025V290.4ZM1052.17 271.3H1073.18V405H1052.17V271.3ZM1119.29 406.91C1108.97 406.91 1101.08 403.981 1095.6 398.124C1090.13 392.267 1087.39 383.99 1087.39 373.294V303.006C1087.39 292.31 1090.13 284.033 1095.6 278.176C1101.08 272.319 1108.97 269.39 1119.29 269.39C1129.6 269.39 1137.5 272.319 1142.97 278.176C1148.45 284.033 1151.18 292.31 1151.18 303.006V373.294C1151.18 383.99 1148.45 392.267 1142.97 398.124C1137.5 403.981 1129.6 406.91 1119.29 406.91ZM1119.29 387.81C1126.54 387.81 1130.17 383.417 1130.17 374.631V301.669C1130.17 292.883 1126.54 288.49 1119.29 288.49C1112.03 288.49 1108.4 292.883 1108.4 301.669V374.631C1108.4 383.417 1112.03 387.81 1119.29 387.81ZM1165.39 271.3H1191.75L1212.19 351.329H1212.57V271.3H1231.29V405H1209.7L1184.49 307.399H1184.11V405H1165.39V271.3Z" fill="#F25B01"/>
<defs>
<clipPath id="clip0_205_55">
<rect width="457" height="457" fill="white" transform="translate(2 5)"/>
</clipPath>
</defs>
</svg>
