<svg width="661" height="661" viewBox="0 0 661 661" fill="none" xmlns="http://www.w3.org/2000/svg">
<g clip-path="url(#clip0_183_35)">
<path d="M375.651 2.37779C377.009 2.58704 378.368 2.78496 379.728 2.98043C414.248 7.98555 447.139 18.6029 478.321 34.2119C478.94 34.5186 479.558 34.8254 480.196 35.1414C494.04 42.0364 507.254 50.0441 519.741 59.1724C520.883 60.0022 522.035 60.8166 523.192 61.6258C529.051 65.7326 534.695 70.1005 540.315 74.5281C541.367 75.3562 542.424 76.1786 543.482 76.9995C551.278 83.1033 558.24 90.1421 565.219 97.1422C566.642 98.5677 568.067 99.9898 569.493 101.412C570.414 102.333 571.335 103.255 572.255 104.176C572.883 104.802 572.883 104.802 573.523 105.44C576.343 108.275 578.999 111.221 581.602 114.255C582.037 114.755 582.037 114.755 582.481 115.264C587.256 120.757 591.72 126.462 596.089 132.282C597.017 133.516 597.951 134.745 598.887 135.973C631.936 179.731 651.093 233.278 658.869 287.194C659.048 288.436 659.232 289.678 659.417 290.919C663.401 319.026 662.252 349.575 658.418 377.622C658.311 378.409 658.204 379.195 658.094 380.006C657.471 384.404 656.709 388.76 655.836 393.114C655.722 393.698 655.609 394.283 655.491 394.884C650.751 418.996 642.992 442.252 633.243 464.766C632.988 465.362 632.733 465.959 632.47 466.574C619.639 496.506 601.627 524.59 579.621 548.611C578.471 549.868 577.35 551.144 576.237 552.434C567.229 562.74 567.229 562.74 562.31 566.844C560.518 568.424 558.865 570.133 557.194 571.839C554.224 574.858 551.124 577.584 547.804 580.221C546.127 581.581 544.54 583.003 542.953 584.467C499.265 624.114 439.869 648.605 382.141 657.772C381.614 657.856 381.088 657.94 380.546 658.026C333.821 665.306 284.136 662.296 238.838 648.735C237.85 648.44 237.85 648.44 236.842 648.138C202.105 637.617 168.832 622.346 139.43 600.968C138.899 600.586 138.368 600.203 137.821 599.81C131.609 595.339 125.562 590.76 119.799 585.723C118.699 584.765 117.59 583.818 116.479 582.873C110.6 577.872 104.778 572.846 99.3653 567.336C98.1191 566.112 96.8263 564.981 95.4948 563.851C93.3758 562.023 91.5577 560.081 89.7508 557.948C88.4183 556.409 87.043 554.921 85.6527 553.434C81.8827 549.401 78.3214 545.255 74.8789 540.936C74.2767 540.191 73.674 539.447 73.071 538.704C66.9021 531.078 60.8514 523.351 55.496 515.125C54.6042 513.762 53.6931 512.411 52.7677 511.071C47.8091 503.878 43.5651 496.309 39.376 488.649C39.0479 488.054 38.7198 487.458 38.3819 486.844C32.6318 476.342 27.7913 465.498 23.2383 454.437C22.9679 453.782 22.6976 453.126 22.4191 452.45C15.3526 435.058 10.2441 416.644 6.45506 398.278C6.31746 397.641 6.17985 397.003 6.03807 396.346C4.93615 391.206 4.02796 386.045 3.22753 380.85C3.1173 380.142 3.1173 380.142 3.00484 379.419C-3.35007 338.068 -1.70638 294.297 8.39159 253.685C8.56799 252.969 8.56799 252.969 8.74795 252.239C21.7801 199.547 47.2037 149.373 84.3169 109.472C85.1371 108.579 85.9534 107.681 86.7398 106.759C90.2164 102.682 93.9817 98.9049 97.7683 95.119C98.9161 93.9697 100.059 92.8155 101.201 91.6609C105.106 87.7372 109.048 84.0278 113.399 80.5969C114.844 79.4424 116.207 78.2339 117.563 76.9768C121.591 73.3585 125.954 70.16 130.276 66.9065C131.58 65.9199 132.875 64.9226 134.167 63.9204C156.646 46.591 182.175 33.0479 208.499 22.5928C209.193 22.3167 209.887 22.0407 210.603 21.7563C235.876 11.817 262.312 5.58862 289.187 1.93652C289.625 1.87648 290.062 1.81644 290.513 1.75458C318.045 -1.96166 348.211 -1.90072 375.651 2.37779ZM148.467 71.0059C147.961 71.3667 147.456 71.7275 146.936 72.0993C137.469 78.883 128.332 86.0634 119.8 93.9996C118.9 94.8259 117.996 95.6478 117.067 96.4409C113.165 99.7721 109.546 103.374 105.928 107.006C104.857 108.08 103.782 109.151 102.708 110.222C99.1052 113.822 95.5986 117.465 92.3076 121.355C91.6951 122.055 91.0816 122.753 90.4669 123.451C82.6752 132.383 75.633 141.83 69.0693 151.694C68.7852 152.12 68.501 152.545 68.2082 152.983C59.3806 166.251 51.6948 180.065 44.54 194.298C44.2431 194.882 43.9461 195.467 43.6402 196.069C21.4435 239.95 12.5378 289.999 13.5556 338.892C13.5681 339.522 13.5806 340.152 13.5935 340.802C14.2924 370.707 19.687 400.238 29.0478 428.617C29.322 429.457 29.322 429.457 29.6016 430.313C36.6462 451.725 45.9437 472.503 57.4502 491.877C57.7579 492.401 58.0657 492.925 58.3828 493.464C64.8752 504.49 72.329 514.683 80.2548 524.716C81.3812 526.149 82.4933 527.593 83.6059 529.037C85.6474 531.664 87.7761 534.197 89.9676 536.699C90.5128 537.325 90.5128 537.325 91.0691 537.963C93.5698 540.827 96.0903 543.671 98.6467 546.485C99.6586 547.601 100.663 548.723 101.662 549.849C104.419 552.937 107.179 555.831 110.349 558.493C111.905 559.859 113.334 561.32 114.779 562.802C117.544 565.601 120.459 568.09 123.532 570.543C125.037 571.764 126.466 573.028 127.891 574.341C132.354 578.349 137.217 581.879 142.012 585.476C142.43 585.791 142.848 586.107 143.279 586.433C158.207 597.689 174.405 606.753 191.07 615.169C191.674 615.474 192.278 615.78 192.901 616.095C253.647 646.578 326.068 655.15 431.078 631.508C471.028 618.183 509.111 596.529 540.207 568.012C541.532 566.801 542.882 565.626 544.244 564.456C546.476 562.515 548.548 560.448 550.621 558.339C551.854 557.127 553.129 556.009 554.451 554.895C556.946 552.743 559.104 550.379 561.279 547.908C562.747 546.252 564.244 544.631 565.755 543.015C569.495 539.012 573.02 534.89 576.438 530.607C577.04 529.871 577.643 529.134 578.246 528.399C583.102 522.447 587.587 516.285 591.931 509.951C592.208 509.549 592.486 509.146 592.772 508.732C629.032 456.04 647.901 392.597 642.58 273.905C638.3 251.049 632.047 228.623 622.915 207.208C622.703 206.706 622.49 206.204 622.271 205.687C610.154 177.273 593.704 150.452 573.506 127.074C571.916 125.224 570.382 123.337 568.854 121.436C566.906 119.041 564.89 116.826 562.668 114.686C561.526 113.544 560.495 112.343 559.454 111.108C557.246 108.546 554.798 106.348 552.262 104.116C550.662 102.675 549.143 101.184 547.633 99.6503C545.073 97.0641 542.41 94.6691 539.644 92.3076C539.01 91.7518 538.375 91.1959 537.721 90.6232C517.697 73.149 495.261 58.0015 471.287 46.4876C469.824 45.7799 468.369 45.0557 466.914 44.3308C426.04 24.1721 379.6 13.3756 334.01 13.4346C333.494 13.4348 332.979 13.435 332.448 13.4352C280.471 13.5157 229.035 25.8642 148.467 71.0059Z" fill="#006697"/>
<path d="M309.569 49.573C310.136 49.5685 310.703 49.564 311.287 49.5594C313.106 49.5482 314.924 49.544 316.743 49.5427C317.364 49.5421 317.985 49.5414 318.626 49.5408C327.887 49.5473 336.874 49.9021 345.992 51.6406C346.551 51.7408 347.109 51.841 347.684 51.9442C363.06 54.7093 377.704 59.148 391.823 65.8418C392.278 66.0567 392.733 66.2716 393.201 66.493C407.845 73.4724 407.845 73.4724 411.834 77.4609C412.008 79.1963 411.89 80.8766 411.834 82.625C409.063 82.2715 406.96 81.6232 404.491 80.3254C403.814 79.9767 403.137 79.6281 402.439 79.2689C401.312 78.6801 400.186 78.0912 399.059 77.5022C379.15 67.1464 356.931 60.5937 334.373 60.0322C333.874 60.019 333.375 60.0058 332.861 59.9922C309.558 59.4586 286.931 63.5861 265.304 72.2969C264.581 72.579 263.858 72.861 263.113 73.1517C253.425 77.0875 244.095 82.3359 235.61 88.4346C235.225 88.7078 234.84 88.9811 234.443 89.2626C228.109 93.774 222.318 98.673 216.75 104.098C215.633 105.185 214.506 106.262 213.378 107.338C208.455 112.089 204.195 117.168 200.107 122.646C199.433 123.53 199.433 123.53 198.746 124.432C192.658 132.565 187.64 141.222 183.324 150.403C183.11 150.851 182.895 151.298 182.674 151.759C175.575 166.617 171.37 182.537 169.123 198.816C169.06 199.257 168.998 199.697 168.933 200.15C163.993 240.806 175.949 283.032 201.116 315.21C203.723 318.508 206.464 321.641 209.351 324.698C210.436 325.981 210.436 325.981 211.081 327.918C211.633 328.189 211.633 328.189 212.196 328.465C214.229 329.496 215.587 331.083 217.133 332.719C221.246 336.948 225.726 340.531 230.446 344.056C231.387 344.765 231.387 344.765 232.348 345.488C250.838 359.185 271.378 367.862 293.706 373.104C294.27 373.24 294.835 373.377 295.416 373.518C318.864 379.124 338.609 370.66 358.616 358.577C364.726 354.78 370.237 350.267 375.519 345.392C376.825 344.195 378.161 343.055 379.518 341.917C413.482 312.098 428.894 263.677 437.009 220.764C437.146 220.039 437.146 220.039 437.286 219.3C438.093 215.037 438.898 210.774 439.678 206.506C439.902 205.287 439.902 205.287 440.13 204.044C440.261 203.328 440.391 202.612 440.525 201.875C440.882 200.107 440.882 200.107 441.527 198.171C441.953 198.171 442.379 198.171 442.818 198.171C442.932 198.819 443.045 199.468 443.161 200.136C449.324 242.989 449.324 242.989 472.923 277.599C480.734 282.814 488.867 284.895 498.251 283.66C507.517 281.78 515.12 277.645 522.861 272.404C523.636 271.885 523.636 271.885 524.426 271.354C529.458 267.972 534.466 264.588 539.239 260.845C540.29 260.14 540.29 260.14 541.581 260.14C535.565 279.871 513.426 303.056 498.683 317.239C497.633 318.289 496.699 319.394 495.75 320.535C492.363 324.465 488.45 327.892 484.629 331.389C483.662 332.275 482.701 333.167 481.74 334.06C448.994 364.205 407.522 381.187 363.945 388.071C363.318 388.171 362.692 388.271 362.046 388.374C350.006 390.189 338.065 390.775 325.901 390.734C325.178 390.733 324.455 390.732 323.71 390.73C312.944 390.701 302.406 390.398 291.77 388.596C291.084 388.485 290.398 388.374 289.691 388.26C274.959 385.835 260.781 381.997 247.23 375.686C246.462 375.333 246.462 375.333 245.678 374.973C231.481 368.386 218.237 359.874 206.719 349.258C205.467 348.108 204.19 347.007 202.891 345.912C196.222 340.083 189.976 333.677 184.615 326.627C184.128 325.999 184.128 325.999 183.631 325.358C174.341 313.354 166.82 300.506 160.731 286.605C160.52 286.124 160.309 285.642 160.092 285.146C156.439 276.646 154.005 267.792 151.694 258.849C151.481 258.026 151.268 257.203 151.049 256.355C150.539 254.181 150.13 252.014 149.758 249.812C149.671 249.329 149.585 248.847 149.496 248.35C143.523 213.876 149.461 177.245 164.605 145.885C164.806 145.456 165.008 145.027 165.216 144.585C170.308 133.759 176.612 123.682 183.97 114.255C184.481 113.598 184.992 112.942 185.518 112.265C193.407 102.572 202.464 93.3125 212.607 85.9793C213.688 85.189 214.744 84.3723 215.799 83.5479C242.069 63.2799 276.14 49.7529 309.569 49.573Z" fill="#F25B01"/>
<path d="M419.58 45.8311C420.219 46.0441 420.858 46.2571 421.517 46.4766C422.149 47.9039 422.149 47.9039 422.699 49.8075C423.01 50.8637 423.01 50.8637 423.326 51.9412C423.649 53.0905 423.649 53.0905 423.978 54.263C424.204 55.0538 424.431 55.8445 424.664 56.6592C425.349 59.0713 426.018 61.4871 426.681 63.9053C426.863 64.5687 427.046 65.2321 427.234 65.9156C434.346 92.0743 437.949 119.153 437.856 146.248C437.855 146.946 437.854 147.645 437.853 148.364C437.825 159.915 437.325 171.23 435.718 182.679C435.578 183.696 435.578 183.696 435.435 184.735C428.88 230.938 409.112 274.051 380.204 310.489C379.93 310.836 379.655 311.182 379.373 311.539C376.406 315.269 373.308 318.861 370.093 322.378C369.287 323.269 368.484 324.164 367.708 325.08C364.204 329.194 360.388 332.985 356.563 336.797C355.395 337.961 354.23 339.129 353.066 340.297C349.312 344.054 345.542 347.736 341.474 351.156C340.722 351.807 339.97 352.458 339.219 353.11C327.356 363.334 327.356 363.334 322.108 366.648C321.682 366.435 321.256 366.222 320.817 366.003C321.505 364.899 322.194 363.796 322.882 362.693C323.476 361.742 324.069 360.79 324.662 359.838C326.238 357.31 327.844 354.809 329.491 352.326C347.281 324.299 354.981 291.587 347.808 258.929C339.466 223.233 315.15 189.745 287.546 166.006C285.391 164.102 283.297 162.134 281.199 160.167C277.949 157.121 274.683 154.098 271.355 151.137C270.281 150.17 269.219 149.189 268.168 148.197C264.676 144.923 261.089 142.043 257.172 139.312C253.261 136.58 249.536 133.636 245.805 130.662C244.599 129.708 243.382 128.77 242.161 127.833C241.754 127.519 241.346 127.204 240.926 126.88C240.15 126.282 239.371 125.686 238.591 125.094C236.403 123.398 234.667 121.649 233.028 119.419C238.436 120.738 243.492 122.608 248.642 124.704C267.843 132.379 288.077 138.772 308.553 142.012C309.139 142.106 309.725 142.201 310.329 142.299C318.59 143.583 326.788 144.131 335.14 144.15C335.955 144.153 336.771 144.157 337.611 144.161C358.143 144.004 377.63 137.98 392.713 123.751C398.59 117.673 402.782 110.741 406.67 103.281C406.974 102.716 407.277 102.151 407.59 101.569C416.068 84.5308 417.763 64.4615 419.58 45.8311Z" fill="#006697"/>
<path d="M267.886 175.578C274.242 177.822 279.097 183.346 283.741 188.044C284.277 188.584 284.812 189.123 285.364 189.678C289.049 193.42 292.442 197.234 295.643 201.398C296.036 201.855 296.43 202.312 296.835 202.783C314.151 223.085 323.975 250.236 327.918 276.277C327.995 276.767 328.071 277.257 328.15 277.761C332.372 305.882 329.328 342.304 313.717 366.648C313.504 366.648 313.291 366.648 313.071 366.648C313.057 365.41 313.057 365.41 313.043 364.146C313.005 361.032 312.955 357.919 312.902 354.805C312.881 353.467 312.862 352.129 312.848 350.79C312.734 340.79 312.246 331.156 308.754 321.665C308.591 321.214 308.428 320.763 308.26 320.298C306.551 315.794 304.245 311.84 301.452 307.907C301.117 307.433 300.781 306.959 300.436 306.47C290.423 293.809 273.433 289.755 258.264 287.634C245.37 286.269 232.499 287.562 219.676 288.967C215.528 289.394 211.373 289.64 207.208 289.833C207.854 287.896 207.854 287.896 210.053 286.663C211.038 286.194 212.025 285.731 213.015 285.274C213.545 285.021 214.076 284.769 214.622 284.509C216.887 283.43 219.16 282.366 221.431 281.301C243.625 270.861 267.968 255.892 276.923 231.737C278.456 227.066 279.828 222.453 280.15 217.536C280.2 216.792 280.2 216.792 280.251 216.033C280.705 203.403 276.197 191.568 270.414 180.583C269.548 178.926 268.717 177.253 267.886 175.578Z" fill="#F25B01"/>
<path d="M173.117 343.37C174.335 343.39 174.335 343.39 175.578 343.41C174.825 348.306 170.676 351.683 167.308 354.949C164.278 357.902 161.362 360.887 158.601 364.095C156.799 366.169 154.911 368.161 153.026 370.158C152.613 370.597 152.201 371.035 151.776 371.486C150.904 372.412 150.032 373.338 149.16 374.264C147.812 375.696 146.467 377.131 145.123 378.568C140.931 383.044 136.737 387.498 132.339 391.773C130.935 393.221 129.692 394.749 128.456 396.342C132.984 395.926 137.191 394.798 141.568 393.598C194.964 379.436 256.849 378.182 305.958 406.559C311.734 409.993 317.276 413.755 322.754 417.644C323.393 418.07 324.032 418.496 324.69 418.935C324.69 419.574 324.69 420.213 324.69 420.871C319.653 420.035 314.98 418.557 310.167 416.877C252.089 397.177 190.377 396.766 96.7102 419.353C96.2227 419.509 95.7353 419.666 95.233 419.827C93.9988 420.228 92.7684 420.641 91.5386 421.055C89.7256 421.517 89.7256 421.517 87.7891 420.871C92.6563 415.36 97.6315 410.088 103.218 405.301C105.387 403.358 107.401 401.264 109.446 399.194C111.228 397.435 113.088 395.803 114.989 394.176C116.567 392.783 118.026 391.288 119.499 389.787C120.672 388.633 121.881 387.553 123.128 386.48C125.729 384.219 128.25 381.884 130.756 379.518C131.663 378.664 132.571 377.81 133.479 376.956C133.933 376.529 134.388 376.101 134.856 375.66C136.927 373.713 139.005 371.774 141.084 369.836C141.48 369.466 141.877 369.096 142.285 368.715C143.085 367.969 143.885 367.223 144.685 366.477C145.891 365.352 147.097 364.226 148.303 363.101C148.903 362.54 148.903 362.54 149.516 361.969C150.318 361.22 151.12 360.471 151.922 359.722C154.018 357.765 156.116 355.81 158.215 353.857C158.65 353.452 159.085 353.047 159.532 352.63C160.36 351.86 161.188 351.09 162.016 350.32C163.726 348.728 165.396 347.132 167.02 345.45C168.995 343.561 170.489 343.327 173.117 343.37Z" fill="#0094B2"/>
<path d="M483.485 343.41C486.037 342.743 488.027 342.745 490.586 343.41C494.23 345.808 497.121 349.31 500.067 352.488C500.891 353.353 501.717 354.217 502.544 355.078C503.743 356.327 504.94 357.577 506.131 358.833C508.423 361.247 510.761 363.528 513.313 365.67C515.559 367.57 517.663 369.627 519.795 371.651C523.581 375.23 527.392 378.778 531.24 382.289C533.925 384.744 536.577 387.234 539.234 389.718C541.836 392.151 544.448 394.573 547.068 396.987C548.107 397.947 549.147 398.906 550.186 399.866C550.921 400.544 551.656 401.221 552.392 401.898C559.079 408.049 565.534 414.409 571.92 420.871C569.758 421.603 568.553 421.43 566.418 420.677C565.825 420.475 565.233 420.273 564.622 420.065C563.641 419.725 563.641 419.725 562.641 419.378C533.777 409.807 503.495 403.653 473.157 401.506C472.381 401.45 472.381 401.45 471.588 401.393C424.66 398.161 378.694 406.399 334.373 421.517C334.373 419.58 334.373 419.58 335.423 418.393C338.904 415.341 342.419 412.885 346.476 410.664C347.061 410.338 347.646 410.012 348.249 409.676C350.074 408.665 351.905 407.667 353.738 406.67C354.599 406.196 354.599 406.196 355.477 405.712C407.716 377.006 469.408 380.313 525.34 395.634C526.024 395.82 526.708 396.006 527.413 396.198C528.016 396.366 528.62 396.534 529.242 396.707C529.692 396.8 530.143 396.892 530.607 396.987C530.82 396.774 531.033 396.561 531.253 396.342C530.653 395.749 530.053 395.157 529.435 394.546C522.047 387.222 522.047 387.222 518.797 383.381C516.946 381.293 514.935 379.366 512.937 377.42C511.601 376.053 510.35 374.671 509.104 373.225C506.715 370.468 504.162 367.91 501.56 365.357C498.174 362.036 494.948 358.645 491.877 355.029C491.418 354.489 491.418 354.489 490.95 353.939C490.125 352.961 489.307 351.978 488.488 350.995C487.952 350.353 487.416 349.71 486.864 349.048C483.485 344.913 483.485 344.913 483.485 343.41Z" fill="#0094B3"/>
<path d="M478.321 443.464C487.055 443.464 495.789 443.464 504.787 443.464C508.29 458.728 511.732 474.004 515.115 489.295C515.122 488.73 515.129 488.166 515.135 487.584C515.199 482.274 515.265 476.964 515.334 471.654C515.37 468.924 515.404 466.194 515.436 463.463C515.467 460.831 515.501 458.198 515.537 455.566C515.55 454.559 515.562 453.552 515.573 452.546C515.588 451.141 515.608 449.736 515.628 448.331C515.638 447.529 515.648 446.728 515.659 445.902C515.761 444.109 515.761 444.109 516.406 443.464C521.306 443.464 526.205 443.464 531.253 443.464C531.253 467.961 531.253 492.458 531.253 517.697C523.158 517.91 515.064 518.123 506.724 518.343C505.085 511.242 503.45 504.14 501.82 497.038C501.516 495.711 501.211 494.385 500.906 493.059C498.493 482.562 496.15 472.052 493.813 461.538C493.6 480.284 493.387 499.029 493.168 518.343C488.269 518.343 483.369 518.343 478.321 518.343C478.321 493.633 478.321 468.923 478.321 443.464Z" fill="#F25B01"/>
<path d="M444.432 446.53C449.406 450.727 450.819 455.784 451.372 462.091C451.483 464.112 451.556 466.131 451.613 468.155C451.649 469.274 451.649 469.274 451.685 470.416C451.851 476.237 451.941 482.059 451.976 487.883C451.985 488.662 451.993 489.442 452.002 490.245C452.01 498.722 451.876 507.179 445.885 513.663C440.217 518.968 433.478 519.915 425.962 519.795C419.582 519.385 412.634 518.063 408.082 513.227C404.039 508.066 403.421 503.123 403.238 496.653C403.225 496.194 403.211 495.735 403.197 495.263C403.155 493.785 403.117 492.306 403.079 490.828C403.059 490.07 403.059 490.07 403.039 489.298C402.949 485.854 402.87 482.411 402.797 478.967C402.781 478.233 402.765 477.499 402.748 476.742C402.333 455.133 402.333 455.133 408.304 448.111C417.202 439.653 434.625 439.834 444.432 446.53ZM422.808 457.665C422.505 459.779 422.505 459.779 422.537 462.173C422.531 462.622 422.526 463.07 422.52 463.532C422.505 465.012 422.504 466.491 422.505 467.97C422.5 469.001 422.495 470.032 422.49 471.062C422.481 473.221 422.48 475.38 422.484 477.539C422.488 480.304 422.468 483.067 422.442 485.831C422.425 487.959 422.424 490.087 422.426 492.215C422.425 493.234 422.419 494.253 422.407 495.272C422.393 496.698 422.399 498.123 422.41 499.55C422.409 500.36 422.408 501.171 422.406 502.006C422.917 504.722 423.878 505.694 426.035 507.369C428.071 507.586 428.071 507.586 429.908 506.724C435.743 498.953 432.519 481.554 432.321 472.079C432.299 470.955 432.281 469.831 432.267 468.707C432.245 467.053 432.211 465.4 432.175 463.747C432.171 463.247 432.167 462.748 432.163 462.233C432.083 459.331 431.725 457.384 429.908 455.083C428.665 454.601 428.665 454.601 427.326 454.72C426.667 454.719 426.667 454.719 425.995 454.717C424.175 455.249 423.76 456.038 422.808 457.665Z" fill="#F25B01"/>
<path d="M364.001 77.9224C370.382 84.8615 372.946 92.9654 372.667 102.303C372.379 105.425 371.708 108.133 370.522 111.027C370.357 111.461 370.192 111.894 370.022 112.341C367.294 118.636 361.462 124.547 355.178 127.304C345.808 130.828 337.027 130.557 327.878 126.439C320.31 122.409 315.416 116.187 312.819 108.104C312.142 105.358 312.11 102.668 312.143 99.852C312.149 99.2563 312.155 98.6606 312.161 98.0469C312.362 90.1015 314.751 84.0081 320.172 78.1064C322.41 76.1421 324.735 74.4977 327.272 72.9424C327.714 72.6636 328.155 72.3849 328.609 72.0977C340.064 65.966 354.904 69.3241 364.001 77.9224Z" fill="#006697"/>
<path d="M221.409 443.464C254.328 443.464 254.328 443.464 260.785 447.982C267.852 455.562 266.057 469.329 266.033 478.934C266.03 480.578 266.033 482.222 266.037 483.866C266.048 506.217 266.048 506.217 260.785 512.533C250.748 520.898 231.961 517.697 221.409 517.697C221.409 493.2 221.409 468.703 221.409 443.464ZM239.483 455.083C239.483 471.911 239.483 488.74 239.483 506.078C243.812 506.55 243.812 506.55 245.858 504.585C247.879 502.029 247.959 500.19 247.979 497.023C247.985 496.221 247.991 495.42 247.998 494.594C248.001 493.718 248.004 492.841 248.006 491.965C248.01 491.065 248.014 490.166 248.017 489.266C248.024 487.379 248.028 485.493 248.03 483.606C248.034 481.194 248.049 478.783 248.067 476.372C248.08 474.513 248.083 472.654 248.084 470.795C248.086 469.906 248.091 469.017 248.099 468.129C248.111 466.882 248.108 465.636 248.105 464.389C248.107 463.681 248.11 462.973 248.112 462.244C247.835 459.908 247.161 458.375 245.938 456.374C243.763 454.665 243.763 454.665 239.483 455.083Z" fill="#0094B3"/>
<path d="M173.642 443.464C179.606 443.464 185.571 443.464 191.716 443.464C191.729 445.272 191.741 447.081 191.755 448.944C191.798 454.911 191.848 460.878 191.901 466.845C191.934 470.464 191.964 474.083 191.988 477.701C192.012 481.192 192.042 484.683 192.076 488.173C192.088 489.507 192.098 490.84 192.105 492.174C192.116 494.038 192.135 495.901 192.156 497.765C192.157 498.32 192.158 498.874 192.16 499.445C192.196 501.979 192.216 503.278 193.652 505.433C194.929 505.667 194.929 505.667 196.315 505.554C197.141 505.514 197.966 505.474 198.816 505.433C199.569 502.432 199.573 499.519 199.594 496.446C199.601 495.873 199.607 495.3 199.614 494.709C199.634 492.819 199.65 490.93 199.666 489.04C199.679 487.728 199.693 486.415 199.707 485.103C199.742 481.653 199.774 478.203 199.805 474.753C199.838 471.231 199.874 467.709 199.909 464.187C199.979 457.279 200.044 450.372 200.107 443.464C206.072 443.464 212.036 443.464 218.182 443.464C218.211 450.389 218.235 457.313 218.249 464.238C218.255 467.455 218.264 470.671 218.279 473.887C218.293 476.997 218.301 480.107 218.304 483.216C218.307 484.397 218.311 485.577 218.318 486.757C218.428 506.08 218.428 506.08 213.542 513.34C208.55 518.221 202.046 519.217 195.306 519.19C194.793 519.2 194.28 519.211 193.752 519.222C188.379 519.226 183.705 517.834 179.451 514.47C172.178 506.989 173.457 494.106 173.516 484.438C173.518 483.25 173.52 482.062 173.521 480.874C173.526 477.777 173.539 474.681 173.553 471.584C173.566 468.412 173.572 465.24 173.579 462.068C173.592 455.866 173.615 449.665 173.642 443.464Z" fill="#0094B3"/>
<path d="M119.742 445.32C123.664 448.654 125.226 451.984 125.874 457.02C125.95 459.36 125.935 461.698 125.914 464.039C125.901 466.196 125.888 468.353 125.874 470.575C119.91 470.575 113.945 470.575 107.8 470.575C107.558 464.241 107.558 464.241 107.491 462.252C107.468 461.733 107.445 461.213 107.422 460.678C107.401 460.148 107.381 459.617 107.36 459.07C107.229 457.478 107.229 457.478 105.863 455.729C104.596 455.356 104.596 455.356 103.201 455.285C102.375 455.218 101.55 455.152 100.699 455.083C100.015 458.777 99.512 461.72 101.763 464.998C105.521 469.559 110.156 473.118 114.845 476.677C120.384 481.078 124.037 486.896 125.672 493.733C126.306 500.073 125.781 505.687 122.848 511.444C118.914 516.016 114.434 518.584 108.385 519.105C100.54 519.567 92.5301 519.394 86.0946 514.308C82.1277 510.408 81.3342 505.273 81.2482 499.88C81.2465 498.799 81.2483 497.718 81.2533 496.638C81.2508 496.092 81.2483 495.546 81.2457 494.983C81.2466 494.456 81.2474 493.928 81.2482 493.385C81.249 492.909 81.2497 492.434 81.2505 491.943C81.334 490.586 81.334 490.586 81.9795 488.004C90.6067 488.323 90.6067 488.323 99.4082 488.649C99.6503 495.589 99.6503 495.589 99.7168 497.764C99.7398 498.334 99.7627 498.904 99.7864 499.492C99.8169 500.364 99.8169 500.364 99.8479 501.254C100.065 502.936 100.42 504.015 101.345 505.433C103.471 506.141 104.355 506.15 106.509 505.433C107.566 503.318 107.491 501.261 107.154 498.978C105.733 495.091 103.852 492.008 100.699 489.295C100.336 488.968 99.972 488.641 99.5973 488.304C97.6943 486.603 95.7651 484.958 93.76 483.377C87.8858 478.74 83.5534 474.236 81.9795 466.702C81.3533 460.902 80.8885 454.15 84.5615 449.273C92.3519 439.741 109.568 439.87 119.742 445.32Z" fill="#0094B3"/>
<path d="M358.373 443.355C359.267 443.352 359.267 443.352 360.179 443.349C361.445 443.346 362.712 443.344 363.978 443.344C365.892 443.343 367.806 443.331 369.72 443.319C388.995 443.26 388.995 443.26 395.477 448.918C400.629 454.641 399.726 464.162 399.53 471.379C399.229 476.609 398.098 480.939 394.405 484.776C389.583 488.637 383.562 488.928 377.662 489.376C375.306 489.562 372.949 489.748 370.521 489.94C370.521 499.1 370.521 508.26 370.521 517.697C364.077 518.127 357.615 518.343 351.156 518.343C351.156 493.846 351.156 469.349 351.156 444.109C353.376 442.999 355.929 443.359 358.373 443.355ZM370.521 455.083C370.521 462.752 370.521 470.42 370.521 478.321C375.314 478.762 375.314 478.762 377.582 477.192C380.311 474.214 379.699 470.252 379.72 466.42C379.733 465.812 379.747 465.204 379.76 464.578C379.798 460.148 379.798 460.148 377.622 456.374C375.357 454.606 375.357 454.606 370.521 455.083Z" fill="#F25B01"/>
<path d="M511.807 218.303C516.918 224.051 519.051 230.578 518.988 238.192C518.222 246.04 514.897 252.127 508.834 257.114C503.089 261.386 496.329 262.668 489.214 261.753C481.773 260.186 476.034 256.486 471.526 250.422C467.808 244.538 467.329 237.16 468.639 230.446C470.275 223.437 474.269 218.453 480.338 214.631C490.566 209.046 503.105 210.329 511.807 218.303Z" fill="#F25B01"/>
<path d="M268.531 443.464C274.283 443.464 280.034 443.464 285.96 443.464C286.508 446.028 286.508 446.028 287.067 448.643C287.421 450.295 287.776 451.946 288.131 453.597C288.378 454.747 288.624 455.896 288.869 457.046C289.221 458.697 289.576 460.347 289.931 461.997C290.041 462.513 290.151 463.029 290.264 463.56C290.8 466.17 290.8 466.17 291.77 468.639C291.919 467.945 292.069 467.251 292.223 466.536C292.78 463.962 293.341 461.389 293.905 458.817C294.148 457.703 294.39 456.589 294.63 455.475C294.975 453.873 295.326 452.273 295.678 450.673C295.784 450.175 295.89 449.676 296 449.163C296.495 446.933 296.944 445.385 298.225 443.464C299.912 443.244 299.912 443.244 302.022 443.275C302.775 443.281 303.528 443.287 304.304 443.294C305.094 443.31 305.883 443.326 306.697 443.343C307.889 443.356 307.889 443.356 309.105 443.369C311.073 443.392 313.04 443.424 315.008 443.464C314.127 448.627 312.673 453.526 311.072 458.507C310.683 459.732 310.294 460.956 309.905 462.18C309.365 463.877 308.822 465.572 308.28 467.268C307.325 470.251 306.376 473.237 305.426 476.222C304.922 477.807 304.416 479.392 303.909 480.976C303.681 481.692 303.452 482.407 303.217 483.145C303.016 483.773 302.815 484.401 302.608 485.049C301.857 487.498 301.371 489.628 301.32 492.195C301.307 492.764 301.294 493.332 301.281 493.918C301.264 494.83 301.264 494.83 301.248 495.76C301.234 496.387 301.221 497.014 301.207 497.659C301.165 499.659 301.127 501.658 301.089 503.657C301.061 505.014 301.033 506.371 301.005 507.727C300.935 511.05 300.871 514.374 300.807 517.697C294.842 517.697 288.878 517.697 282.732 517.697C282.701 516.333 282.669 514.97 282.637 513.564C282.204 495.974 279.593 480.995 274.258 464.218C274.082 463.666 273.907 463.113 273.726 462.544C272.843 459.763 271.955 456.985 271.057 454.209C270.727 453.179 270.397 452.149 270.067 451.119C269.912 450.645 269.757 450.171 269.597 449.683C268.894 447.476 268.531 445.806 268.531 443.464Z" fill="#0094B3"/>
<path d="M563.609 443.424C565.173 443.427 566.737 443.43 568.302 443.432C572.09 443.439 575.878 443.45 579.666 443.464C579.666 447.511 579.666 451.559 579.666 455.729C575.406 455.729 571.145 455.729 566.756 455.729C566.756 476.391 566.756 497.054 566.756 518.343C560.365 518.343 553.975 518.343 547.391 518.343C547.391 497.68 547.391 477.017 547.391 455.729C543.13 455.729 538.87 455.729 534.48 455.729C534.48 451.894 534.48 448.06 534.48 444.109C544.201 443.449 553.869 443.388 563.609 443.424Z" fill="#F25B01"/>
<path d="M195.629 412.358C196.6 412.359 196.6 412.359 197.59 412.36C229.85 412.412 261.354 416.662 292.899 423.171C293.48 423.289 294.06 423.408 294.659 423.53C300.443 424.717 306.177 425.991 311.831 427.707C312.257 427.834 312.683 427.96 313.122 428.091C315.275 428.775 316.815 429.403 318.235 431.199C311.395 430.899 304.696 430.283 297.926 429.273C245.978 421.601 192.207 420.816 97.5462 431.058C94.021 431.65 90.7185 431.963 87.1436 431.845C87.1436 431.419 87.1436 430.993 87.1436 430.554C108.5 420.186 135.365 417.017 158.714 414.295C159.179 414.24 159.645 414.185 160.124 414.129C171.954 412.749 183.723 412.345 195.629 412.358Z" fill="#B2B3B7"/>
<path d="M452.949 412.439C491.097 411.85 538.952 413.17 573.211 431.199C573.211 431.625 573.211 432.051 573.211 432.49C566.266 431.568 559.329 430.609 552.401 429.569C491.892 420.491 430.172 420.733 345.627 431.32C342.486 431.777 339.485 431.913 336.31 431.845C338.061 430.094 340.012 429.781 342.344 429.174C343.07 428.981 343.07 428.981 343.811 428.783C345.411 428.359 347.012 427.943 348.615 427.528C349.166 427.384 349.718 427.241 350.286 427.093C383.825 418.384 418.259 413.022 452.949 412.439Z" fill="#B2B3B7"/>
<path d="M129.102 443.464C134.107 443.449 139.112 443.437 144.117 443.43C146.441 443.427 148.766 443.423 151.09 443.415C153.333 443.408 155.577 443.404 157.82 443.403C159.091 443.401 160.363 443.396 161.634 443.391C162.797 443.391 162.797 443.391 163.984 443.391C164.666 443.389 165.348 443.388 166.051 443.386C167.832 443.464 167.832 443.464 170.414 444.109C170.414 447.731 170.414 451.352 170.414 455.083C166.58 455.296 162.745 455.509 158.795 455.729C158.795 476.178 158.795 496.628 158.795 517.697C152.83 517.697 146.866 517.697 140.721 517.697C140.721 497.035 140.721 476.372 140.721 455.083C138.164 455.403 138.164 455.403 135.557 455.729C133.399 455.8 131.262 455.759 129.102 455.729C129.102 451.681 129.102 447.634 129.102 443.464Z" fill="#0094B3"/>
<path d="M255.737 209.351C260.42 212.585 263.586 216.66 264.996 222.209C266.136 228.816 265.361 234.251 262.076 240.129C258.581 244.998 253.205 248.81 247.229 249.812C240.394 250.414 235.218 249.724 229.357 246.181C223.659 240.329 220.775 234.087 220.764 225.928C221.137 221.336 222.579 217.996 225.282 214.309C225.668 213.736 226.054 213.164 226.452 212.574C234.171 204.414 246.402 203.697 255.737 209.351Z" fill="#F25B01"/>
<path d="M455.729 443.464C461.906 443.464 468.084 443.464 474.448 443.464C474.448 467.961 474.448 492.458 474.448 517.697C468.214 518.044 461.972 518.343 455.729 518.343C455.729 493.633 455.729 468.923 455.729 443.464Z" fill="#F25B01"/>
</g>
<defs>
<clipPath id="clip0_183_35">
<rect width="661" height="661" fill="white"/>
</clipPath>
</defs>
</svg>
