<svg width="200" height="200" viewBox="0 0 200 200" fill="none" xmlns="http://www.w3.org/2000/svg">
<rect x="2.5" y="2.5" width="195" height="195" rx="97.5" stroke="white" stroke-width="5"/>
<path d="M93.4709 24.9133C93.6505 24.9119 93.8301 24.9105 94.0152 24.909C94.5915 24.9054 95.1675 24.9041 95.7438 24.9037C95.9405 24.9035 96.1373 24.9033 96.3404 24.9031C99.2745 24.9051 102.122 25.018 105.011 25.571C105.188 25.6029 105.365 25.6348 105.547 25.6676C110.418 26.5472 115.058 27.9592 119.531 30.0886C119.675 30.157 119.82 30.2253 119.968 30.2957C124.607 32.516 124.607 32.516 125.871 33.7847C125.926 34.3368 125.889 34.8713 125.871 35.4275C124.993 35.315 124.327 35.1088 123.545 34.696C123.33 34.585 123.116 34.4742 122.895 34.3599C122.538 34.1726 122.181 33.9852 121.824 33.7979C115.516 30.5036 108.476 28.4191 101.329 28.2405C101.171 28.2363 101.013 28.2321 100.85 28.2278C93.4674 28.058 86.2985 29.371 79.4464 32.142C79.2174 32.2318 78.9883 32.3215 78.7523 32.4139C75.6828 33.666 72.7268 35.3355 70.0385 37.2756C69.9166 37.3625 69.7946 37.4494 69.6688 37.539C67.662 38.9741 65.8272 40.5325 64.0631 42.2583C63.7092 42.6041 63.3522 42.9467 62.9948 43.2889C61.4351 44.8003 60.0854 46.416 58.7902 48.1586C58.5766 48.4398 58.5766 48.4398 58.359 48.7267C56.4301 51.3139 54.8403 54.0678 53.4728 56.9884C53.405 57.1309 53.3369 57.2731 53.2669 57.4197C51.0177 62.1462 49.6855 67.2105 48.9736 72.389C48.9536 72.5293 48.9339 72.6693 48.9134 72.8134C47.3482 85.7465 51.1362 99.179 59.1098 109.415C59.9358 110.464 60.8042 111.461 61.7189 112.433C62.0627 112.841 62.0627 112.841 62.267 113.458C62.4419 113.544 62.4419 113.544 62.6203 113.632C63.2644 113.96 63.6947 114.464 64.1845 114.985C65.4876 116.33 66.907 117.47 68.4024 118.591C68.7006 118.817 68.7006 118.817 69.005 119.047C74.8632 123.404 81.3709 126.164 88.445 127.832C88.6237 127.875 88.8027 127.919 88.9868 127.963C96.4158 129.747 102.672 127.054 109.01 123.211C110.946 122.003 112.692 120.567 114.366 119.016C114.779 118.636 115.203 118.273 115.633 117.911C126.393 108.425 131.276 93.022 133.847 79.3709C133.891 79.1403 133.891 79.1403 133.935 78.9052C134.191 77.5491 134.446 76.193 134.693 74.8353C134.764 74.4475 134.764 74.4475 134.836 74.0521C134.878 73.8243 134.919 73.5966 134.961 73.3621C135.075 72.7997 135.075 72.7997 135.279 72.1838C135.414 72.1838 135.549 72.1838 135.688 72.1838C135.724 72.39 135.76 72.5964 135.797 72.8089C137.749 86.4409 137.749 86.4409 145.226 97.4507C147.701 99.1096 150.278 99.7716 153.251 99.3788C156.186 98.7807 158.595 97.4653 161.048 95.7981C161.293 95.633 161.293 95.633 161.544 95.4641C163.138 94.3882 164.725 93.3118 166.237 92.1211C166.57 91.8968 166.57 91.8968 166.979 91.8968C165.073 98.1734 158.059 105.549 153.388 110.061C153.055 110.395 152.759 110.746 152.458 111.109C151.385 112.359 150.145 113.449 148.935 114.562C148.628 114.844 148.324 115.127 148.02 115.412C137.645 125.001 124.505 130.403 110.699 132.593C110.5 132.625 110.302 132.657 110.097 132.689C106.282 133.267 102.499 133.453 98.6453 133.44C98.4162 133.44 98.1872 133.439 97.9511 133.439C94.5401 133.43 91.2014 133.333 87.8316 132.76C87.6143 132.725 87.3969 132.689 87.1729 132.653C82.5054 131.882 78.0134 130.661 73.7201 128.653C73.4768 128.541 73.4768 128.541 73.2284 128.426C68.7303 126.331 64.5343 123.623 60.885 120.246C60.4884 119.88 60.0838 119.53 59.6722 119.182C57.5593 117.327 55.5804 115.29 53.8819 113.047C53.7276 112.847 53.7276 112.847 53.5701 112.643C50.6268 108.825 48.2439 104.738 46.3147 100.316C46.2479 100.163 46.181 100.009 46.1123 99.8515C44.9549 97.1475 44.1837 94.331 43.4515 91.4861C43.3841 91.2243 43.3166 90.9625 43.2472 90.6928C43.0856 90.0012 42.956 89.3118 42.8382 88.6114C42.8106 88.4577 42.7834 88.3044 42.7552 88.1463C40.8627 77.1798 42.7441 65.5271 47.5421 55.5511C47.6058 55.4147 47.6698 55.2782 47.7357 55.1376C49.349 51.6937 51.3463 48.4881 53.6775 45.4893C53.8394 45.2803 54.0013 45.0716 54.168 44.8563C56.6674 41.7728 59.5369 38.8273 62.7505 36.4945C63.093 36.2431 63.4276 35.9833 63.7618 35.7211C72.0849 29.2736 82.8796 24.9705 93.4709 24.9133Z" fill="white"/>
<path d="M128.325 23.7231C128.528 23.7909 128.73 23.8587 128.939 23.9285C129.139 24.3825 129.139 24.3825 129.314 24.9881C129.412 25.3241 129.412 25.3241 129.512 25.6668C129.615 26.0324 129.615 26.0324 129.719 26.4054C129.79 26.657 129.862 26.9085 129.936 27.1677C130.153 27.935 130.365 28.7035 130.575 29.4727C130.633 29.6838 130.691 29.8948 130.75 30.1122C133.004 38.4336 134.145 47.0476 134.116 55.6668C134.115 55.8888 134.115 56.1112 134.115 56.3399C134.106 60.0144 133.947 63.6138 133.438 67.2558C133.394 67.5794 133.394 67.5794 133.349 67.9099C131.272 82.6075 125.009 96.3222 115.85 107.913C115.763 108.024 115.676 108.134 115.587 108.248C114.647 109.434 113.665 110.577 112.646 111.695C112.391 111.979 112.137 112.264 111.891 112.555C110.781 113.864 109.572 115.07 108.36 116.282C107.99 116.653 107.621 117.024 107.252 117.396C106.062 118.591 104.868 119.762 103.579 120.85C103.341 121.057 103.103 121.264 102.865 121.472C99.1061 124.724 99.1061 124.724 97.4434 125.778C97.3085 125.71 97.1735 125.643 97.0344 125.573C97.2524 125.222 97.4707 124.871 97.6886 124.52C97.8768 124.218 98.0647 123.915 98.2526 123.612C98.7519 122.808 99.2607 122.012 99.7826 121.222C105.419 112.307 107.859 101.901 105.586 91.5117C102.943 80.1565 95.2389 69.5036 86.4932 61.952C85.8104 61.3463 85.147 60.7203 84.4823 60.0945C83.4526 59.1256 82.4178 58.1639 81.3634 57.222C81.0232 56.9144 80.6867 56.6023 80.3537 56.2868C79.2473 55.2453 78.1109 54.3291 76.8698 53.4604C75.6307 52.5913 74.4505 51.6548 73.2685 50.7087C72.8864 50.4052 72.5008 50.1068 72.1139 49.8088C71.985 49.7089 71.8557 49.6087 71.7226 49.5056C71.4768 49.3154 71.23 49.1258 70.9829 48.9375C70.2896 48.398 69.7396 47.8416 69.2203 47.1322C70.9337 47.5518 72.5356 48.1467 74.1673 48.8134C80.2507 51.2549 86.6614 53.2886 93.1488 54.3193C93.3345 54.3492 93.5201 54.3794 93.7115 54.4106C96.3288 54.819 98.9262 54.9933 101.572 54.9994C101.831 55.0003 102.089 55.0016 102.355 55.0029C108.86 54.9529 115.034 53.0366 119.813 48.5102C121.675 46.5768 123.003 44.3716 124.235 41.9985C124.331 41.8188 124.427 41.6391 124.527 41.4539C127.213 36.0339 127.75 29.6497 128.325 23.7231Z" fill="white"/>
<path d="M80.2643 64.9971C82.2781 65.7109 83.8163 67.4682 85.2876 68.9626C85.4575 69.1344 85.627 69.3059 85.8019 69.4824C86.9694 70.6728 88.0444 71.8861 89.0585 73.2107C89.183 73.356 89.3079 73.5014 89.4362 73.6513C94.9224 80.1095 98.0349 88.7465 99.2842 97.0304C99.3086 97.1863 99.3326 97.3422 99.3577 97.5025C100.695 106.448 99.7309 118.034 94.7849 125.778C94.7174 125.778 94.6499 125.778 94.5802 125.778C94.5758 125.385 94.5758 125.385 94.5713 124.982C94.5593 123.992 94.5435 123.002 94.5267 122.011C94.52 121.585 94.514 121.16 94.5096 120.734C94.4734 117.553 94.3188 114.488 93.2125 111.469C93.1608 111.325 93.1092 111.182 93.056 111.034C92.5145 109.601 91.7839 108.343 90.899 107.092C90.7928 106.941 90.6864 106.791 90.5771 106.635C87.4047 102.608 82.0218 101.318 77.2158 100.643C73.1306 100.209 69.0527 100.62 64.99 101.067C63.6758 101.203 62.3594 101.281 61.0398 101.343C61.2445 100.727 61.2445 100.727 61.9412 100.334C62.2532 100.185 62.566 100.038 62.8796 99.8925C63.0475 99.812 63.2158 99.7318 63.3888 99.6491C64.1064 99.3059 64.8265 98.9674 65.546 98.6286C72.5777 95.3076 80.2903 90.5458 83.1275 82.8618C83.6132 81.3759 84.0479 79.9085 84.1499 78.3443C84.1657 78.1077 84.1657 78.1077 84.1819 77.8662C84.3257 73.8485 82.8975 70.0836 81.0653 66.5892C80.7909 66.0621 80.5276 65.5299 80.2643 64.9971Z" fill="white"/>
<path d="M50.2389 118.373C50.6248 118.38 50.6248 118.38 51.0186 118.386C50.78 119.943 49.4655 121.018 48.3984 122.057C47.4385 122.996 46.5146 123.946 45.6398 124.966C45.0689 125.626 44.4707 126.26 43.8735 126.895C43.7427 127.034 43.6121 127.174 43.4775 127.317C43.2012 127.612 42.9249 127.906 42.6486 128.201C42.2216 128.656 41.7954 129.113 41.3696 129.57C40.0415 130.994 38.7127 132.411 37.3193 133.771C36.8744 134.231 36.4806 134.717 36.089 135.224C37.5236 135.092 38.8565 134.733 40.2433 134.351C57.1607 129.846 76.7676 129.447 92.3267 138.474C94.1567 139.567 95.9126 140.763 97.6482 142.001C97.8506 142.136 98.0531 142.272 98.2616 142.411C98.2616 142.615 98.2616 142.818 98.2616 143.027C96.6657 142.761 95.1852 142.291 93.6603 141.757C75.2595 135.49 55.7074 135.359 26.031 142.544C25.8766 142.594 25.7222 142.644 25.563 142.695C25.172 142.823 24.7822 142.954 24.3925 143.086C23.8181 143.233 23.8181 143.233 23.2046 143.027C24.7467 141.274 26.3229 139.597 28.0929 138.074C28.7801 137.456 29.4182 136.79 30.0661 136.131C30.6307 135.572 31.22 135.053 31.8223 134.535C32.3222 134.092 32.7845 133.616 33.2512 133.139C33.6228 132.772 34.0059 132.428 34.401 132.087C35.225 131.368 36.0238 130.625 36.8177 129.872C37.1051 129.601 37.3928 129.329 37.6805 129.057C37.8243 128.921 37.9685 128.785 38.1167 128.645C38.7729 128.026 39.4312 127.409 40.0899 126.792C40.2154 126.675 40.3412 126.557 40.4704 126.436C40.7239 126.198 40.9774 125.961 41.2308 125.724C41.6129 125.366 41.995 125.008 42.3771 124.65C42.5672 124.471 42.5672 124.471 42.7614 124.29C43.0155 124.052 43.2696 123.813 43.5237 123.575C44.1878 122.952 44.8525 122.331 45.5175 121.709C45.6553 121.58 45.7932 121.452 45.9348 121.319C46.1971 121.074 46.4595 120.829 46.7218 120.584C47.2636 120.078 47.7927 119.57 48.3072 119.035C48.9329 118.434 49.4063 118.36 50.2389 118.373Z" fill="white"/>
<path d="M148.572 118.386C149.381 118.174 150.011 118.174 150.822 118.386C151.976 119.149 152.892 120.263 153.826 121.274C154.087 121.549 154.349 121.824 154.611 122.098C154.99 122.495 155.37 122.893 155.747 123.292C156.473 124.06 157.214 124.786 158.023 125.467C158.734 126.071 159.401 126.726 160.076 127.37C161.276 128.508 162.483 129.637 163.702 130.754C164.553 131.535 165.393 132.327 166.235 133.117C167.059 133.891 167.887 134.661 168.717 135.429C169.046 135.735 169.376 136.04 169.705 136.345C169.938 136.561 170.171 136.776 170.404 136.992C172.522 138.948 174.568 140.971 176.591 143.027C175.906 143.26 175.524 143.205 174.848 142.965C174.66 142.901 174.472 142.837 174.279 142.771C173.968 142.663 173.968 142.663 173.651 142.552C164.506 139.508 154.912 137.55 145.3 136.867C145.054 136.849 145.054 136.849 144.803 136.831C129.935 135.803 115.371 138.423 101.329 143.233C101.329 142.616 101.329 142.616 101.662 142.239C102.765 141.268 103.878 140.487 105.164 139.78C105.349 139.676 105.534 139.573 105.726 139.466C106.304 139.144 106.884 138.827 107.465 138.51C107.737 138.359 107.737 138.359 108.016 138.205C124.566 129.073 144.112 130.125 161.833 134.999C162.05 135.058 162.266 135.117 162.49 135.178C162.681 135.232 162.872 135.285 163.069 135.34C163.212 135.37 163.355 135.399 163.502 135.429C163.569 135.362 163.637 135.294 163.706 135.224C163.516 135.036 163.326 134.847 163.13 134.653C160.79 132.323 160.79 132.323 159.76 131.101C159.174 130.437 158.536 129.824 157.903 129.205C157.48 128.77 157.084 128.33 156.689 127.87C155.932 126.993 155.123 126.18 154.299 125.368C153.226 124.311 152.204 123.232 151.231 122.082C151.086 121.91 151.086 121.91 150.937 121.735C150.676 121.424 150.417 121.112 150.157 120.799C149.987 120.595 149.818 120.39 149.643 120.179C148.572 118.864 148.572 118.864 148.572 118.386Z" fill="white"/>
<path d="M110.716 33.9318C112.738 36.1392 113.55 38.7171 113.462 41.6875C113.371 42.6807 113.158 43.5421 112.782 44.4627C112.73 44.6008 112.678 44.7385 112.624 44.8807C111.76 46.8832 109.912 48.7636 107.921 49.6406C104.952 50.7616 102.17 50.6754 99.2716 49.3654C96.8738 48.0834 95.3232 46.1042 94.5004 43.5329C94.2859 42.6593 94.2758 41.8036 94.2863 40.9078C94.2882 40.7183 94.2901 40.5288 94.292 40.3336C94.3557 37.8061 95.1126 35.8677 96.8301 33.9903C97.5391 33.3655 98.2758 32.8424 99.0796 32.3476C99.2196 32.2589 99.3593 32.1703 99.5032 32.0789C103.132 30.1284 107.834 31.1966 110.716 33.9318Z" fill="white"/>
<path d="M157.545 78.5882C159.165 80.4167 159.84 82.493 159.82 84.9151C159.578 87.4117 158.524 89.348 156.603 90.9344C154.783 92.2934 152.641 92.7012 150.387 92.4101C148.03 91.9116 146.211 90.7346 144.783 88.8056C143.605 86.9339 143.453 84.5868 143.868 82.4511C144.387 80.2214 145.652 78.636 147.575 77.4201C150.816 75.6435 154.788 76.0516 157.545 78.5882Z" fill="white"/>
<path d="M57.3713 140.319C57.6789 140.32 57.6789 140.32 57.9926 140.32C68.2135 140.336 78.1948 141.688 88.1892 143.759C88.3733 143.796 88.557 143.834 88.7468 143.873C90.5793 144.251 92.396 144.656 94.1874 145.202C94.3223 145.242 94.4573 145.282 94.5964 145.324C95.2785 145.542 95.7664 145.741 96.2163 146.313C94.0492 146.217 91.9268 146.021 89.7819 145.7C73.3233 143.259 56.2871 143.01 26.2958 146.268C25.179 146.456 24.1326 146.556 23 146.518C23 146.383 23 146.247 23 146.108C29.7663 142.809 38.2779 141.801 45.6755 140.935C45.8229 140.918 45.9705 140.9 46.1223 140.883C49.8704 140.444 53.5991 140.315 57.3713 140.319Z" fill="white"/>
<path d="M138.898 140.345C150.984 140.157 166.146 140.577 177 146.313C177 146.448 177 146.584 177 146.723C174.8 146.43 172.602 146.125 170.407 145.794C151.236 142.906 131.681 142.983 104.895 146.351C103.9 146.496 102.949 146.54 101.943 146.518C102.498 145.961 103.116 145.861 103.855 145.668C104.085 145.607 104.085 145.607 104.32 145.544C104.827 145.409 105.334 145.277 105.842 145.145C106.016 145.099 106.191 145.053 106.371 145.006C116.997 142.236 127.907 140.53 138.898 140.345Z" fill="white"/>
<path d="M76.4152 75.7407C77.8989 76.7694 78.9019 78.0657 79.3487 79.8309C79.7099 81.9327 79.4643 83.6616 78.4235 85.5315C77.3162 87.0803 75.6129 88.293 73.7196 88.6117C71.5541 88.8032 69.9142 88.5837 68.0572 87.4567C66.2519 85.5951 65.3382 83.6094 65.3347 81.014C65.4529 79.5532 65.9098 78.4907 66.7661 77.3179C66.8884 77.1356 67.0107 76.9536 67.1368 76.7659C69.5824 74.1702 73.4576 73.9421 76.4152 75.7407Z" fill="white"/>
</svg>
