<svg xmlns="http://www.w3.org/2000/svg" version="1.1" xmlns:xlink="http://www.w3.org/1999/xlink" width="512" height="512" x="0" y="0" viewBox="0 0 64 64" style="enable-background:new 0 0 512 512" xml:space="preserve" class=""><g><path d="M30 36a2.011 2.011 0 0 1-.838-.184l-26-12a2 2 0 0 1 0-3.632l26-12a2 2 0 0 1 1.676 0l26 12a2 2 0 0 1 0 3.632l-26 12A2.011 2.011 0 0 1 30 36zM8.772 22 30 31.8 51.228 22 30 12.2z" fill="#006697" opacity="1" data-original="#000000"></path><path d="M56 48a2 2 0 0 1-2-2V22a2 2 0 0 1 4 0v24a2 2 0 0 1-2 2zM30 50c-9.151 0-19-2.5-19-8V27a2 2 0 0 1 4 0v15c0 1.161 5.257 4 15 4s15-2.839 15-4V27a2 2 0 0 1 4 0v15c0 5.5-9.849 8-19 8z" fill="#006697" opacity="1" data-original="#000000"></path><path d="M56 56a6 6 0 1 1 6-6 6.006 6.006 0 0 1-6 6zm0-8a2 2 0 1 0 2 2 2 2 0 0 0-2-2z" fill="#006697" opacity="1" data-original="#000000"></path></g></svg>