<svg width="24" height="24" viewBox="0 0 24 24" fill="none" xmlns="http://www.w3.org/2000/svg">
<path fill-rule="evenodd" clip-rule="evenodd" d="M22.014 4.091C22.342 4.419 22.526 4.864 22.526 5.328C22.526 5.793 22.342 6.238 22.014 6.566L12.807 15.773C12.711 15.869 12.59 15.937 12.458 15.97L6.801 17.384C6.546 17.448 6.276 17.373 6.089 17.187C5.903 17.001 5.828 16.731 5.892 16.475L7.306 10.818C7.339 10.686 7.407 10.566 7.503 10.47L16.711 1.263C17.039 0.934 17.484 0.75 17.948 0.75C18.412 0.75 18.857 0.934 19.185 1.263L22.014 4.091ZM20.953 5.152L18.125 2.323C18.078 2.276 18.014 2.25 17.948 2.25C17.882 2.25 17.818 2.276 17.771 2.323L8.711 11.383L7.65 15.626L11.893 14.565L20.953 5.505C21 5.458 21.026 5.395 21.026 5.328C21.026 5.262 21 5.199 20.953 5.152Z" fill="#0F9D58"/>
<path fill-rule="evenodd" clip-rule="evenodd" d="M8.564 10.4701L12.807 14.7121C12.998 14.9031 13.071 15.1821 12.999 15.4431C12.927 15.7031 12.72 15.9051 12.458 15.9701L6.801 17.3841C6.546 17.4481 6.276 17.3731 6.089 17.1871C5.903 17.0011 5.828 16.7311 5.892 16.4751L7.306 10.8181C7.372 10.5561 7.573 10.3491 7.834 10.2771C8.094 10.2051 8.373 10.2791 8.564 10.4701ZM8.44 12.4671L7.828 14.9151L8.602 15.3371L10.809 14.8361L8.44 12.4671Z" fill="#0F9D58"/>
<path fill-rule="evenodd" clip-rule="evenodd" d="M3.808 17.414C4.131 17.156 4.604 17.208 4.862 17.531C5.121 17.855 5.068 18.327 4.745 18.586L3.239 19.791C2.963 20.011 2.892 20.402 3.074 20.705L3.076 20.707C3.187 20.893 3.369 21.025 3.58 21.073C3.792 21.121 4.013 21.081 4.191 20.963C6.022 19.743 9.445 17.862 12.751 17.75C14.11 17.705 14.978 17.954 15.594 18.326C16.235 18.712 16.621 19.24 16.964 19.812C17.433 20.593 17.797 21.49 19.401 21.76C19.809 21.829 20.085 22.217 20.016 22.625C19.947 23.033 19.56 23.308 19.152 23.24C17.307 22.929 16.584 22.068 16.023 21.162C15.666 20.586 15.436 19.957 14.774 19.584C14.34 19.339 13.728 19.218 12.802 19.25C9.791 19.351 6.69 21.101 5.023 22.211L5.02 22.213C4.498 22.558 3.858 22.674 3.248 22.536C2.638 22.397 2.112 22.016 1.79 21.48L1.788 21.477C1.22 20.53 1.439 19.309 2.302 18.619L3.808 17.414Z" fill="#0F9D58"/>
</svg>
